<svg width="312" height="366" viewBox="0 0 312 366" fill="none" xmlns="http://www.w3.org/2000/svg">
<mask id="mask0_316_168" style="mask-type:luminance" maskUnits="userSpaceOnUse" x="11" y="24" width="278" height="252">
<path d="M288.125 24.375H11.875V275.625H288.125V24.375Z" fill="white"/>
</mask>
<g mask="url(#mask0_316_168)">
<path fill-rule="evenodd" clip-rule="evenodd" d="M207.219 137.16C207.351 137.289 207.442 137.374 207.486 137.412C207.403 137.322 207.314 137.237 207.219 137.16ZM200.317 93.6391C203.101 96.2156 205.342 98.0256 205.439 98.1041C203.924 96.4084 202.204 94.9087 200.317 93.6391ZM190.064 76.5162C186.613 79.8691 194.604 88.3534 200.311 93.6325C197.668 91.9453 194.594 91.0244 192.599 93.8191C188.583 99.4403 205.442 117.71 206.294 118.628C205.672 117.998 197.015 109.401 193.169 114.815C189.48 120.006 204.839 134.904 207.209 137.154C206.338 136.422 203.696 134.832 200.563 138.977C197.894 142.5 203.334 149.84 206.923 154.005C205.732 153.342 204.217 153.191 202.486 154.549C200.358 156.217 202.589 161.226 205.38 165.849C207.009 168.542 208.822 171.103 210.072 172.797C210.964 174.006 211.57 174.777 211.624 174.839C212.742 174.66 214.13 174.446 215.63 174.239C217.07 174.038 218.606 173.843 220.099 173.692C220.023 173.437 216.265 160.551 219.122 157.072C221.422 154.266 223.392 155.752 224.096 156.466C222.525 154.621 214.71 145.131 216.975 141.134C219.423 136.815 225.202 143.295 225.501 143.634C225.111 143.095 213.965 127.572 219.122 121.322C224.278 115.072 231.933 126.956 232.2 127.371C231.873 126.783 220.372 105.881 225.513 101.506C227.071 100.181 228.875 100.174 230.637 100.818C231.633 90.7316 224.073 93.5219 224.073 93.5219C224.073 93.5219 238.418 78.4387 234.424 73.7062C230.493 69.0456 220.538 80.45 220.237 80.7956C220.597 80.3022 234.637 61.0237 228.362 52.4137C222 43.6878 210.469 64.0941 210.469 64.0941C210.469 64.0941 204.553 46.2022 197.605 51.6728C190.733 57.0822 204.819 79.11 205.141 79.6128L205.144 79.6178C204.906 79.4256 195.175 71.5487 190.064 76.5162ZM209.723 157.066C209.661 156.937 208.623 154.951 206.923 154.005C208.435 155.768 209.62 156.962 209.723 157.066ZM213.271 70.8781C213.269 70.6194 213.058 70.4106 212.8 70.4119C212.541 70.4134 212.332 70.6244 212.333 70.8834L212.802 70.8806C212.333 70.8834 212.333 70.8837 212.333 70.8844V70.8875V70.9006L212.334 70.9519L212.335 71.1544C212.336 71.3331 212.338 71.5981 212.34 71.9444C212.344 72.6369 212.351 73.6534 212.36 74.9494C212.379 77.5412 212.408 81.2509 212.451 85.7228C212.536 94.6666 212.673 106.659 212.882 118.853C213.092 131.047 213.373 143.445 213.746 153.2C213.933 158.077 214.142 162.296 214.378 165.501C214.495 167.102 214.62 168.455 214.752 169.512C214.882 170.553 215.023 171.348 215.187 171.806C215.274 172.05 215.542 172.177 215.786 172.09C216.03 172.003 216.157 171.734 216.07 171.491C215.945 171.142 215.813 170.444 215.682 169.395C215.553 168.362 215.43 167.027 215.313 165.432C215.078 162.244 214.869 158.037 214.683 153.164C214.31 143.42 214.029 131.029 213.82 118.837C213.61 106.646 213.473 94.6562 213.388 85.7141C213.346 81.2428 213.317 77.5337 213.298 74.9425C213.288 73.6469 213.282 72.6309 213.277 71.9384C213.275 71.5925 213.273 71.3272 213.272 71.1487L213.271 70.9466L213.271 70.8953V70.8825V70.8791C213.271 70.8784 213.271 70.8781 212.802 70.8806L213.271 70.8781Z" fill="#080016"/>
<path d="M243.317 168.816C244.825 169.643 245.664 170.56 245.664 171.525C245.664 171.578 245.661 171.632 245.655 171.685C245.498 173.338 242.887 174.837 238.695 175.972C237.677 174.809 236.02 173.976 233.976 173.392L233.9 173.178C236.552 172.223 240.216 170.686 242.749 168.738L243.317 168.816Z" fill="#E6DCFA"/>
<path d="M224.189 156.574C224.274 156.674 224.331 156.743 224.356 156.769C224.334 156.74 224.277 156.668 224.189 156.574ZM254.984 112.298C255.145 112.226 258.812 110.554 263.525 107.981C268.261 106.171 273.361 105.426 274.203 110.083C275.806 118.966 245.57 132.152 244.649 132.552C245.341 132.306 261.982 126.481 264.443 132.561C266.957 138.773 241.67 146.02 241.67 146.02C241.67 146.02 256.606 144.835 257.492 150.972C258.359 156.967 236.642 158.872 235.643 158.957C236.281 158.922 245.523 158.498 245.664 164.179C245.705 165.854 244.498 167.394 242.748 168.739C240.215 170.687 236.551 172.224 233.899 173.179C231.942 173.886 230.534 174.272 230.534 174.272L230.455 174.433C229.262 173.893 227.984 173.564 226.678 173.462C225.107 173.298 222.672 173.437 220.098 173.697C220.022 173.443 216.264 160.556 219.121 157.077C221.421 154.271 223.391 155.758 224.095 156.471C222.524 154.627 214.709 145.137 216.974 141.139C219.422 136.819 225.201 143.298 225.5 143.639C225.11 143.099 213.961 127.572 219.121 121.327C224.28 115.081 231.933 126.961 232.199 127.376C231.872 126.788 220.371 105.886 225.512 101.511C227.07 100.185 228.874 100.179 230.637 100.824C234.699 102.307 238.549 107.241 238.69 107.42C238.429 107.042 227.381 90.9631 234.866 85.5425C239.155 82.435 245.663 96.1887 245.663 96.1887C245.663 96.1887 242.961 72.0841 246.75 69.8656C250.452 67.7034 254.622 87.3556 254.823 88.3141C254.584 87.0509 248.62 54.8575 256.014 51.0869C263.556 47.2406 268.731 68.2409 268.731 68.2409C268.731 68.2409 284.7 60.4037 287.453 66.9084C290.121 73.2153 264.609 91.4709 263.04 92.5909C264.423 91.6847 284.421 78.7928 284.848 88.4997C285.137 95.0294 272.452 103.118 263.524 107.985C260.556 109.168 257.698 110.611 254.984 112.298Z" fill="#080016"/>
<path d="M200.886 166.746C202.227 166.428 203.701 166.148 205.285 165.91L205.379 165.853C207.006 168.546 208.819 171.107 210.07 172.801L209.891 172.933C207.098 173.238 205.284 173.523 205.284 173.523L200.886 166.746Z" fill="#E6DCFA"/>
<path d="M205.439 98.1041C205.342 98.0256 203.101 96.2156 200.317 93.6391C202.203 94.9084 203.924 96.4084 205.439 98.1041Z" fill="#E6DCFA"/>
<path d="M180.734 154.553L166.744 155.565L166.684 155.568C166.603 152.888 166.458 149.95 166.269 146.905L174.355 146.019C174.355 146.019 182.67 150.286 180.734 154.553Z" fill="#080016"/>
<path d="M158.586 244.17H158.555C158.566 244.167 158.576 244.167 158.586 244.17Z" fill="#E6DCFA"/>
<path d="M175.904 163.43L166.034 176.961H142.519L156.274 163.43H157.773L158.078 163.417L157.773 156.492L157.403 148.117L155.828 112.633L158.38 110.082L163.04 111.414C163.04 111.414 165.268 130.689 166.27 146.904C166.458 149.949 166.604 152.887 166.685 155.567C166.77 158.574 166.773 161.258 166.663 163.411L167.087 163.43L175.904 163.43Z" fill="#E6DCFA"/>
<path d="M203.963 258.866L195.645 260.362V242.727L158.587 244.169C158.577 244.166 158.566 244.166 158.556 244.169L147.237 244.612C149.107 227.66 150.244 197.151 150.357 188.163C150.385 186.02 149.656 184.405 148.44 183.18L208.953 179.18L205.364 236.492L203.963 258.866Z" fill="#080016"/>
<path d="M150.357 188.164C150.244 197.151 149.107 227.66 147.237 244.613L24.6286 249.383V275.002H16.9723L12.6502 192.155L148.44 183.18C149.656 184.407 150.385 186.021 150.357 188.164Z" fill="#080016"/>
<path d="M169.582 37.6612L165.076 61.8037L155.385 50.2681L142.595 61.8037L136.864 53.2441L131.431 61.2128L126.993 55.3712L123.806 57.6556L125.44 35.4456L169.582 37.6612ZM150.454 46.7928C150.454 46.1053 150.251 45.4334 149.869 44.8616C149.487 44.29 148.944 43.8447 148.309 43.5816C147.674 43.3184 146.975 43.2494 146.301 43.3834C145.627 43.5175 145.007 43.8487 144.521 44.3347C144.035 44.8206 143.704 45.44 143.57 46.1144C143.436 46.7884 143.504 47.4872 143.768 48.1225C144.031 48.7575 144.476 49.3003 145.048 49.6822C145.619 50.0641 146.291 50.2681 146.979 50.2681C147.435 50.2681 147.887 50.1784 148.309 50.0037C148.731 49.8291 149.114 49.5731 149.437 49.2503C149.759 48.9278 150.015 48.5447 150.19 48.1228C150.364 47.7012 150.454 47.2491 150.454 46.7928Z" fill="#080016"/>
<path d="M142.596 61.8034L155.385 50.2678L165.076 61.8034L163.37 70.9353L123 68.6034L123.807 57.6556L126.994 55.3712L131.431 61.2128L136.864 53.2437L142.596 61.8034Z" fill="#080016"/>
<path d="M117.454 102.444C117.636 102.567 121.413 105.121 120.043 107.868C118.638 110.677 114.852 105.759 114.852 105.759H114.849C115.078 102.582 115.245 98.645 115.355 95.3706C115.474 98.3244 120.932 98.4019 120.932 100.917C120.932 103.362 117.636 102.494 117.454 102.444Z" fill="#E6DCFA"/>
<path d="M91.8688 126.149C97.99 125.844 106.864 125.681 114.72 125.593C124.126 125.492 132.069 125.499 132.069 125.499L132.427 149.9L157.402 148.118L157.773 156.493L142.184 157.147L142.112 157.351C136.034 155.252 115.534 157.332 115.534 157.332L115.418 157.339L115.845 167.171L115.977 170.197C115.977 170.197 72.1159 175.701 54.7419 165.272L54.5597 165.237L55.6784 159.493C55.7463 159.323 55.7813 159.142 55.7819 158.958C55.7819 157.221 52.5547 155.706 47.7878 154.921L47.8069 154.807C46.1791 131.444 79.4534 128.125 84.9241 126.793C86.0112 126.529 88.5284 126.319 91.8688 126.149Z" fill="#080016"/>
<path d="M93.71 104.712C93.6975 104.734 93.6819 104.772 93.6597 104.819C93.6819 104.772 93.7006 104.734 93.71 104.712ZM93.6162 104.908C93.2725 105.558 92.1363 107.38 90.5428 106.463C88.6197 105.353 91.7244 102.321 92.7616 99.5119C93.7988 96.7025 92.0231 92.8556 91.9491 89.5288C91.875 86.2019 106.108 85.9809 106.108 85.9809C106.108 85.9809 104.371 80.1394 106.108 79.6962C107.793 79.2659 109.377 83.775 109.471 84.0453C109.402 83.6872 107.897 75.85 109.989 75.85C112.136 75.85 113.169 83.6872 113.169 83.6872C113.169 83.6872 113.76 74.2978 115.536 74.6684C117.261 75.03 116.331 83.2156 116.277 83.6684C116.362 83.2622 117.861 76.1834 121.525 77.4781C125.296 78.8106 115.536 89.8997 115.536 89.8997H115.513C115.529 89.2434 115.536 88.8659 115.536 88.8659C115.536 88.8659 96.6784 88.8659 96.6816 96.8506C96.6847 99.0694 96.8378 102.742 96.98 106.636C96.8763 106.975 95.8206 110.218 93.5769 109.917C91.5103 109.64 93.1603 105.866 93.6159 104.907L93.6162 104.908Z" fill="#E6DCFA"/>
<path d="M114.719 125.594C106.863 125.682 97.9894 125.844 91.8681 126.15C91.8397 126.028 91.0825 122.568 92.3175 121.914C92.6662 121.729 94.5012 121.619 96.9775 121.556C100.607 121.462 105.606 121.471 109.286 121.497C112.142 121.518 114.201 121.547 114.201 121.547L114.719 125.594Z" fill="#080016"/>
<path d="M72.0941 82.0247L73.3162 90.0094L71.3869 90.1194L66.4031 90.3991L63.4431 90.5656L64.5522 82.0247H72.0941Z" fill="#080016"/>
<path d="M55.6784 159.493C54.7922 161.787 48.2559 163.565 40.3278 163.565C32.5947 163.565 26.1876 161.872 25.0564 159.659L24.8773 158.958C24.8773 156.413 31.7934 154.348 40.3278 154.348C42.8259 154.338 45.3206 154.53 47.7878 154.92C52.5547 155.706 55.7819 157.221 55.7819 158.958L55.6784 159.493Z" fill="#E6DCFA"/>
<path d="M54.5597 165.237L51.0597 183.233C51.0597 184.867 46.5909 186.19 41.0797 186.19C35.5684 186.19 31.0962 184.867 31.0962 183.233L29.8462 178.344H29.843L27.2162 168.081L26.6002 165.687L25.0562 159.66C26.1874 161.872 32.5947 163.566 40.3278 163.566C48.2559 163.566 54.7922 161.787 55.6784 159.493L54.5597 165.237Z" fill="#080016"/>
<path d="M12.6502 192.155L16.9739 275.002H24.6286V249.383L147.237 244.613L158.555 244.17H158.587L195.644 242.727V260.362L203.962 258.867L205.364 236.493L208.952 179.18L148.44 183.18L12.6502 192.155Z" stroke="#E6DCFA" stroke-width="3" stroke-linecap="round" stroke-linejoin="round"/>
<path d="M157.773 163.43H156.274L142.519 176.961H166.034L175.904 163.43H167.087" stroke="#E6DCFA" stroke-width="3" stroke-linecap="round" stroke-linejoin="round"/>
<path d="M158.379 170.196L158.077 163.417L157.773 156.492L157.402 148.117L155.827 112.633L158.379 110.082C158.379 110.082 161.283 162.135 160.931 170.195" stroke="#E6DCFA" stroke-width="3" stroke-linecap="round" stroke-linejoin="round"/>
<path d="M158.379 110.083L163.039 111.415C163.039 111.415 165.267 130.691 166.27 146.905C166.457 149.95 166.603 152.888 166.684 155.568C166.769 158.576 166.772 161.259 166.662 163.412C166.562 165.407 166.361 166.947 166.034 167.868" stroke="#E6DCFA" stroke-width="3" stroke-linecap="round" stroke-linejoin="round"/>
<path d="M157.402 148.118L132.427 149.899L132.068 125.499L131.431 82.0247L181.447 92.6709V145.242L174.355 146.019L166.27 146.905H166.267" stroke="#E6DCFA" stroke-width="3" stroke-linecap="round" stroke-linejoin="round"/>
<path d="M66.8841 24.9786L68.2131 81.2487" stroke="#E6DCFA" stroke-width="3" stroke-linecap="round" stroke-linejoin="round"/>
<path d="M71.3869 90.1194L73.3162 90.0094L72.0941 82.0247H64.5522L63.4431 90.5656L66.4031 90.3991L71.3869 90.1194Z" stroke="#E6DCFA" stroke-width="3" stroke-linecap="round" stroke-linejoin="round"/>
<path d="M66.4031 90.3987V94.0409L67.3616 93.9906L71.1575 93.7925L72.1316 93.7422L71.3869 90.1191" stroke="#E6DCFA" stroke-width="3" stroke-linecap="round" stroke-linejoin="round"/>
<path d="M67.3613 93.9909L66.8838 96.2566C66.8838 96.2566 60.6713 96.5175 61.595 103.431C62.5188 110.344 70.47 109.935 70.5791 109.899C70.6881 109.863 77.9728 108.79 77.0869 102.948C76.2009 97.1069 71.2075 96.1825 71.2075 96.1825L71.1697 94.0397" stroke="#E6DCFA" stroke-width="3" stroke-linecap="round" stroke-linejoin="round"/>
<path d="M68.3794 96.85L67.0312 101.878L65.2934 105.055L68.175 103.798L70.2837 105.759L72.1312 103.688L74.7206 104.096L69.5984 96.85" stroke="#E6DCFA" stroke-width="3" stroke-linecap="round" stroke-linejoin="round"/>
<path d="M54.7419 165.272C72.1169 175.701 115.977 170.196 115.977 170.196L115.845 167.17L115.418 157.337L115.238 153.265C115.238 153.265 69.8881 160.106 67.5469 150.751C66.4031 146.166 72.1316 144.982 72.1316 144.982" stroke="#E6DCFA" stroke-width="3" stroke-linecap="round" stroke-linejoin="round"/>
<path d="M132.069 125.5C132.069 125.5 124.125 125.494 114.72 125.594C106.864 125.682 97.99 125.844 91.8688 126.15C88.5284 126.32 86.0112 126.53 84.9241 126.794C79.4534 128.125 46.1791 131.444 47.8069 154.807" stroke="#E6DCFA" stroke-width="3" stroke-linecap="round" stroke-linejoin="round"/>
<path d="M91.8687 126.153V126.15C91.8403 126.027 91.0831 122.567 92.3181 121.914C92.6669 121.728 94.5019 121.618 96.9781 121.556C100.607 121.462 105.607 121.471 109.287 121.496C112.143 121.518 114.201 121.546 114.201 121.546L114.719 125.594V125.597" stroke="#E6DCFA" stroke-width="3" stroke-linecap="round" stroke-linejoin="round"/>
<path d="M109.287 121.496C109.287 121.496 107.178 116.666 109.62 114.89C112.061 113.115 113.243 114.447 114.201 111.119C114.459 110.227 114.673 108.222 114.849 105.759C115.078 102.582 115.245 98.6444 115.355 95.37C115.433 93.0384 115.483 91.0431 115.511 89.8991C115.527 89.2428 115.533 88.8653 115.533 88.8653C115.533 88.8653 96.6759 88.8653 96.6791 96.85C96.6822 99.0687 96.8353 102.742 96.9775 106.635C97.1881 112.477 97.3734 118.818 96.9744 121.479" stroke="#E6DCFA" stroke-width="3" stroke-linecap="round" stroke-linejoin="round"/>
<path d="M117.454 102.444C117.636 102.494 120.932 103.362 120.932 100.917C120.932 98.4031 115.474 98.3231 115.355 95.3706" stroke="#E6DCFA" stroke-width="3" stroke-linecap="round" stroke-linejoin="round"/>
<path d="M114.852 105.759C114.852 105.759 118.638 110.677 120.042 107.868C121.413 105.121 117.636 102.567 117.453 102.444C117.452 102.442 117.45 102.441 117.447 102.441" stroke="#E6DCFA" stroke-width="3" stroke-linecap="round" stroke-linejoin="round"/>
<path d="M93.6156 104.907C93.16 105.865 91.51 109.639 93.5747 109.915C95.8184 110.217 96.8741 106.974 96.9778 106.634L96.9872 106.606" stroke="#E6DCFA" stroke-width="3" stroke-linecap="round" stroke-linejoin="round"/>
<path d="M93.7097 104.712C93.6972 104.734 93.6817 104.772 93.6597 104.819" stroke="#E6DCFA" stroke-width="3" stroke-linecap="round" stroke-linejoin="round"/>
<path d="M93.6597 104.818C93.6817 104.772 93.7004 104.734 93.7097 104.712C93.714 104.707 93.7171 104.701 93.719 104.694C93.7208 104.692 93.7221 104.69 93.7224 104.688" stroke="#E6DCFA" stroke-width="3" stroke-linecap="round" stroke-linejoin="round"/>
<path d="M93.6595 104.819C93.6464 104.843 93.6348 104.867 93.625 104.892C93.6213 104.897 93.6181 104.902 93.6156 104.908" stroke="#E6DCFA" stroke-width="3" stroke-linecap="round" stroke-linejoin="round"/>
<path d="M109.469 84.0453C109.375 83.775 107.791 79.2659 106.106 79.6962C104.369 80.1394 106.106 85.9809 106.106 85.9809C106.106 85.9809 91.8747 86.1997 91.9469 89.5288C92.0191 92.8578 93.7947 96.7028 92.7594 99.5119C91.7241 102.321 88.6175 105.353 90.5406 106.463C92.1344 107.38 93.2716 105.557 93.6141 104.908" stroke="#E6DCFA" stroke-width="3" stroke-linecap="round" stroke-linejoin="round"/>
<path d="M116.275 83.6681C116.328 83.2156 117.258 75.0303 115.533 74.6684C113.758 74.2978 113.167 83.6869 113.167 83.6869C113.167 83.6869 112.133 75.8497 109.987 75.8497C107.893 75.8497 109.399 83.6869 109.469 84.045C109.47 84.0491 109.471 84.0534 109.472 84.0575" stroke="#E6DCFA" stroke-width="3" stroke-linecap="round" stroke-linejoin="round"/>
<path d="M115.533 89.8994C115.533 89.8994 125.293 78.8103 121.523 77.4778C117.859 76.1831 116.36 83.2628 116.275 83.6681C116.273 83.6744 116.272 83.6809 116.272 83.6872" stroke="#E6DCFA" stroke-width="3" stroke-linecap="round" stroke-linejoin="round"/>
<path d="M104.146 111.415C104.146 111.415 99.7844 112.377 99.2656 109.344" stroke="#E6DCFA" stroke-width="3" stroke-linecap="round" stroke-linejoin="round"/>
<path d="M104.444 105.759C104.444 105.759 106.882 106.463 107.178 105.759C107.474 105.055 106.587 93.5947 106.587 93.5947C106.587 93.5947 111.096 92.7837 112.429 93.5947" stroke="#E6DCFA" stroke-width="3" stroke-linecap="round" stroke-linejoin="round"/>
<path d="M110.063 96.85V98.8453" stroke="#E6DCFA" stroke-width="3" stroke-linecap="round" stroke-linejoin="round"/>
<path d="M102.521 96.85L102.817 98.8453" stroke="#E6DCFA" stroke-width="3" stroke-linecap="round" stroke-linejoin="round"/>
<path d="M12.6502 192.155L22.8502 175.296L27.2148 168.081" stroke="#E6DCFA" stroke-width="3" stroke-linecap="round" stroke-linejoin="round"/>
<path d="M140.06 34.0853L120.118 33.4472V72.5978L168.806 73.0409L172.133 35.1128L152.953 34.5L140.06 34.0853Z" stroke="#E6DCFA" stroke-width="3" stroke-linecap="round" stroke-linejoin="round"/>
<path d="M165.076 61.8034L169.582 37.6609L125.442 35.4456L123.807 57.6556L123 68.6034L163.37 70.9353L165.076 61.8034Z" stroke="#E6DCFA" stroke-width="3" stroke-linecap="round" stroke-linejoin="round"/>
<path d="M140.081 33.4469L147.51 29.01L152.952 34.4966" stroke="#E6DCFA" stroke-width="3" stroke-linecap="round" stroke-linejoin="round"/>
<path d="M133.614 160.032C138.095 159.897 143.686 159.614 143.777 159.032C143.893 158.293 143.262 157.746 142.111 157.35C136.034 155.251 115.533 157.331 115.533 157.331" stroke="#E6DCFA" stroke-width="3" stroke-linecap="round" stroke-linejoin="round"/>
<path d="M133.614 160.031C130.761 159.994 128.074 160.14 128.074 160.14C128.074 160.14 130.594 160.117 133.614 160.031Z" stroke="#E6DCFA" stroke-width="3" stroke-linecap="round" stroke-linejoin="round"/>
<path d="M134.472 163.364C137.472 162.877 140.301 162.189 140.301 161.322C140.301 160.338 136.848 160.068 133.614 160.03" stroke="#E6DCFA" stroke-width="3" stroke-linecap="round" stroke-linejoin="round"/>
<path d="M134.466 163.364C132.107 163.497 129.76 163.779 127.437 164.208C127.437 164.208 131.062 163.914 134.466 163.364Z" stroke="#E6DCFA" stroke-width="3" stroke-linecap="round" stroke-linejoin="round"/>
<path d="M134.466 163.364H134.472" stroke="#E6DCFA" stroke-width="3" stroke-linecap="round" stroke-linejoin="round"/>
<path d="M115.844 167.17C115.844 167.17 118.565 167.226 122.17 167.195C126.207 167.16 131.355 167.012 135.041 166.547C137.91 166.189 139.892 165.636 139.786 164.797C139.619 163.516 137.156 163.258 134.473 163.365" stroke="#E6DCFA" stroke-width="3" stroke-linecap="round" stroke-linejoin="round"/>
<path d="M122.17 167.204L122.632 169.236C126.903 169.529 131.191 169.473 135.453 169.069C140.412 168.528 145.21 167.24 146.514 164.356C146.668 164.018 146.801 163.672 146.913 163.318C148.264 158.969 143.777 159.032 143.777 159.032" stroke="#E6DCFA" stroke-width="3" stroke-linecap="round" stroke-linejoin="round"/>
<path d="M140.302 161.322C146.291 160.807 146.586 163.43 146.586 163.43C146.586 163.43 146.709 163.386 146.913 163.317C148.003 162.95 151.413 161.903 150.728 163.43C149.915 165.24 148.88 169.825 141.116 170.787C133.351 171.748 126.327 171.971 126.994 176.333C127.541 179.903 142.951 177.628 148.44 183.18C149.656 184.406 150.385 186.021 150.357 188.164C150.244 197.151 149.107 227.66 147.237 244.613C146.649 249.971 145.983 253.974 145.257 255.519C142.226 261.951 120.043 259.4 121.447 265.464C122.852 271.529 149.506 268.409 152.39 268.126C166.782 266.706 159.379 244.532 158.587 244.169C158.577 244.166 158.566 244.166 158.556 244.169" stroke="#E6DCFA" stroke-width="3" stroke-linecap="round" stroke-linejoin="round"/>
<path d="M135.446 169.014L135.041 166.547" stroke="#E6DCFA" stroke-width="3" stroke-linecap="round" stroke-linejoin="round"/>
<path d="M142.184 157.146L157.773 156.492" stroke="#E6DCFA" stroke-width="3" stroke-linecap="round" stroke-linejoin="round"/>
<path d="M208.952 179.18L207.852 177.486L205.285 173.523L200.886 166.746L192.43 153.708L180.734 154.553L166.744 155.565" stroke="#E6DCFA" stroke-width="3" stroke-linecap="round" stroke-linejoin="round"/>
<path d="M174.355 146.019C174.355 146.019 182.67 150.286 180.734 154.553" stroke="#E6DCFA" stroke-width="3" stroke-linecap="round" stroke-linejoin="round"/>
<path d="M123.807 57.6556L126.994 55.3712L131.431 61.2128L136.864 53.2437L142.596 61.8034L155.385 50.2678L165.076 61.8034" stroke="#E6DCFA" stroke-width="3" stroke-linecap="round" stroke-linejoin="round"/>
<path d="M146.979 50.2678C148.898 50.2678 150.454 48.7119 150.454 46.7925C150.454 44.8731 148.898 43.3172 146.979 43.3172C145.059 43.3172 143.503 44.8731 143.503 46.7925C143.503 48.7119 145.059 50.2678 146.979 50.2678Z" stroke="#E6DCFA" stroke-width="3" stroke-linecap="round" stroke-linejoin="round"/>
<path d="M205.364 236.493C205.364 236.493 237.457 243.06 239.232 232.471C240.976 222.044 245.52 173.206 245.661 171.685C245.663 171.672 245.664 171.66 245.664 171.647" stroke="#E6DCFA" stroke-width="3" stroke-linecap="round" stroke-linejoin="round"/>
<path d="M243.317 168.816C244.825 169.642 245.664 170.56 245.664 171.525C245.664 171.578 245.661 171.632 245.655 171.685C245.498 173.338 242.886 174.837 238.694 175.971C233.843 177.284 226.87 178.108 219.121 178.108C215.356 178.115 211.593 177.907 207.852 177.486L207.692 177.467" stroke="#E6DCFA" stroke-width="3" stroke-linecap="round" stroke-linejoin="round"/>
<path d="M200.886 166.745C202.227 166.428 203.701 166.148 205.285 165.909" stroke="#E6DCFA" stroke-width="3" stroke-linecap="round" stroke-linejoin="round"/>
<path d="M225.638 173.228C228.705 125.317 267.994 73.7066 267.994 73.7066" stroke="#E6DCFA" stroke-width="3" stroke-linecap="round" stroke-linejoin="round"/>
<path d="M233.975 173.392C236.02 173.976 237.676 174.809 238.693 175.972" stroke="#E6DCFA" stroke-width="3" stroke-linecap="round" stroke-linejoin="round"/>
<path d="M205.285 173.523C205.285 173.523 207.098 173.237 209.892 172.933" stroke="#E6DCFA" stroke-width="3" stroke-linecap="round" stroke-linejoin="round"/>
<path d="M235.609 158.958C235.621 158.958 235.632 158.957 235.643 158.955C236.281 158.921 245.523 158.497 245.664 164.178C245.705 165.853 244.499 167.393 242.748 168.738C240.216 170.686 236.552 172.223 233.899 173.178C231.942 173.885 230.534 174.271 230.534 174.271" stroke="#E6DCFA" stroke-width="3" stroke-linecap="round" stroke-linejoin="round"/>
<path d="M244.627 132.56C244.627 132.56 244.634 132.557 244.649 132.551C245.341 132.305 261.982 126.48 264.443 132.56C266.957 138.772 241.671 146.019 241.671 146.019C241.671 146.019 256.606 144.834 257.492 150.971C258.359 156.967 236.643 158.871 235.643 158.956" stroke="#E6DCFA" stroke-width="3" stroke-linecap="round" stroke-linejoin="round"/>
<path d="M254.978 112.301C254.981 112.301 254.983 112.3 254.984 112.298C257.698 110.609 260.556 109.164 263.525 107.98C268.261 106.17 273.361 105.426 274.203 110.082C275.806 118.966 245.57 132.151 244.649 132.551" stroke="#E6DCFA" stroke-width="3" stroke-linecap="round" stroke-linejoin="round"/>
<path d="M262.966 92.6362C262.966 92.6362 262.991 92.6206 263.042 92.5859C264.424 91.6797 284.422 78.7878 284.849 88.4947C285.138 95.0244 272.453 103.113 263.526 107.98C258.812 110.554 255.145 112.226 254.985 112.298" stroke="#E6DCFA" stroke-width="3" stroke-linecap="round" stroke-linejoin="round"/>
<path d="M254.83 88.3475C254.827 88.3372 254.825 88.3266 254.824 88.3159V88.31C254.585 87.0469 248.621 54.8534 256.015 51.0828C263.557 47.2366 268.732 68.2369 268.732 68.2369C268.732 68.2369 284.701 60.3997 287.454 66.9044C290.122 73.2112 264.61 91.4669 263.041 92.5869" stroke="#E6DCFA" stroke-width="3" stroke-linecap="round" stroke-linejoin="round"/>
<path d="M238.694 107.421C238.694 107.419 238.693 107.417 238.691 107.415C238.43 107.038 227.382 90.9584 234.867 85.5378C239.156 82.4303 245.664 96.1841 245.664 96.1841C245.664 96.1841 242.962 72.0794 246.751 69.8609C250.453 67.6987 254.623 87.3509 254.824 88.3094" stroke="#E6DCFA" stroke-width="3" stroke-linecap="round" stroke-linejoin="round"/>
<path d="M232.206 127.385C232.203 127.381 232.201 127.377 232.199 127.372C231.873 126.784 220.372 105.882 225.512 101.507C227.071 100.181 228.874 100.175 230.637 100.82C234.699 102.303 238.549 107.237 238.691 107.416" stroke="#E6DCFA" stroke-width="3" stroke-linecap="round" stroke-linejoin="round"/>
<path d="M225.512 143.653C225.509 143.649 225.506 143.645 225.503 143.64L225.5 143.637C225.11 143.097 213.961 127.57 219.121 121.325C224.28 115.079 231.933 126.959 232.199 127.374" stroke="#E6DCFA" stroke-width="3" stroke-linecap="round" stroke-linejoin="round"/>
<path d="M224.094 156.469C222.523 154.625 214.708 145.134 216.973 141.137C219.422 136.817 225.2 143.296 225.498 143.637" stroke="#E6DCFA" stroke-width="3" stroke-linecap="round" stroke-linejoin="round"/>
<path d="M224.356 156.768C224.331 156.743 224.274 156.675 224.189 156.573" stroke="#E6DCFA" stroke-width="3" stroke-linecap="round" stroke-linejoin="round"/>
<path d="M224.189 156.573C224.277 156.667 224.334 156.74 224.356 156.768C224.362 156.775 224.362 156.778 224.365 156.781L224.368 156.784" stroke="#E6DCFA" stroke-width="3" stroke-linecap="round" stroke-linejoin="round"/>
<path d="M224.189 156.573L224.108 156.482C224.105 156.479 224.102 156.473 224.095 156.47" stroke="#E6DCFA" stroke-width="3" stroke-linecap="round" stroke-linejoin="round"/>
<path d="M220.098 173.7V173.697C220.023 173.442 216.265 160.555 219.121 157.077C221.421 154.27 223.392 155.757 224.095 156.47" stroke="#E6DCFA" stroke-width="3" stroke-linecap="round" stroke-linejoin="round"/>
<path d="M212.802 70.8787C212.802 70.8787 206.674 119.522 215.63 174.243" stroke="#E6DCFA" stroke-width="3" stroke-linecap="round" stroke-linejoin="round"/>
<path d="M220.23 80.8053L220.236 80.7991V80.7959C220.538 80.4503 230.493 69.0459 234.424 73.7066C238.417 78.4391 224.073 93.5222 224.073 93.5222C224.073 93.5222 231.633 90.7319 230.637 100.819" stroke="#E6DCFA" stroke-width="3" stroke-linecap="round" stroke-linejoin="round"/>
<path d="M205.147 79.6209L205.144 79.6178C204.927 79.2784 190.707 57.1028 197.605 51.6728C204.553 46.2022 210.469 64.0941 210.469 64.0941C210.469 64.0941 222 43.6878 228.362 52.4137C234.637 61.0237 220.597 80.3022 220.237 80.7956" stroke="#E6DCFA" stroke-width="3" stroke-linecap="round" stroke-linejoin="round"/>
<path d="M200.311 93.6328C194.604 88.3537 186.613 79.8694 190.064 76.5165C195.176 71.5478 204.911 79.4297 205.144 79.6181" stroke="#E6DCFA" stroke-width="3" stroke-linecap="round" stroke-linejoin="round"/>
<path d="M205.442 98.1072L205.439 98.1041C205.342 98.0256 203.101 96.2156 200.317 93.6391" stroke="#E6DCFA" stroke-width="3" stroke-linecap="round" stroke-linejoin="round"/>
<path d="M200.317 93.6391C202.203 94.9084 203.924 96.4084 205.439 98.1041" stroke="#E6DCFA" stroke-width="3" stroke-linecap="round" stroke-linejoin="round"/>
<path d="M200.317 93.639C200.317 93.6354 200.314 93.6354 200.311 93.6322" stroke="#E6DCFA" stroke-width="3" stroke-linecap="round" stroke-linejoin="round"/>
<path d="M206.294 118.627C205.442 117.709 188.584 99.4394 192.6 93.8181C194.595 91.0244 197.668 91.945 200.311 93.6322" stroke="#E6DCFA" stroke-width="3" stroke-linecap="round" stroke-linejoin="round"/>
<path d="M206.329 118.662L206.326 118.658L206.313 118.646" stroke="#E6DCFA" stroke-width="3" stroke-linecap="round" stroke-linejoin="round"/>
<path d="M206.313 118.646L206.326 118.658" stroke="#E6DCFA" stroke-width="3" stroke-linecap="round" stroke-linejoin="round"/>
<path d="M206.313 118.645C206.308 118.638 206.302 118.631 206.294 118.627" stroke="#E6DCFA" stroke-width="3" stroke-linecap="round" stroke-linejoin="round"/>
<path d="M207.208 137.154C204.839 134.904 189.479 120.006 193.168 114.815C197.014 109.401 205.672 117.998 206.293 118.628" stroke="#E6DCFA" stroke-width="3" stroke-linecap="round" stroke-linejoin="round"/>
<path d="M207.485 137.412C207.441 137.374 207.349 137.289 207.217 137.16" stroke="#E6DCFA" stroke-width="3" stroke-linecap="round" stroke-linejoin="round"/>
<path d="M207.219 137.16C207.314 137.237 207.403 137.322 207.486 137.412C207.491 137.419 207.498 137.425 207.505 137.43C207.508 137.433 207.511 137.433 207.511 137.437L207.514 137.44" stroke="#E6DCFA" stroke-width="3" stroke-linecap="round" stroke-linejoin="round"/>
<path d="M207.219 137.161C207.216 137.161 207.213 137.157 207.209 137.154" stroke="#E6DCFA" stroke-width="3" stroke-linecap="round" stroke-linejoin="round"/>
<path d="M209.728 157.077C209.728 157.077 209.728 157.073 209.722 157.07C209.618 156.967 208.434 155.772 206.922 154.01C203.334 149.84 197.894 142.5 200.562 138.977C203.695 134.832 206.338 136.422 207.208 137.154" stroke="#E6DCFA" stroke-width="3" stroke-linecap="round" stroke-linejoin="round"/>
<path d="M211.623 174.846V174.843C211.57 174.781 210.963 174.01 210.071 172.801C208.821 171.107 207.008 168.546 205.379 165.853C202.589 161.23 200.358 156.222 202.485 154.553C204.217 153.195 205.731 153.346 206.923 154.009C208.623 154.955 209.66 156.941 209.722 157.07" stroke="#E6DCFA" stroke-width="3" stroke-linecap="round" stroke-linejoin="round"/>
<path d="M55.7812 158.958C55.7809 159.142 55.7456 159.323 55.6778 159.493C54.7916 161.787 48.2553 163.565 40.3272 163.565C32.5941 163.565 26.187 161.872 25.0558 159.659C24.9394 159.444 24.8779 159.203 24.8767 158.958C24.8767 156.413 31.7928 154.348 40.3272 154.348C42.8253 154.338 45.32 154.53 47.7872 154.92C52.5544 155.706 55.7812 157.221 55.7812 158.958Z" stroke="#E6DCFA" stroke-width="3" stroke-linecap="round" stroke-linejoin="round"/>
<path d="M51.0591 183.233C51.0591 184.867 46.5903 186.19 41.0791 186.19C35.5678 186.19 31.0956 184.867 31.0956 183.233" stroke="#E6DCFA" stroke-width="3" stroke-linecap="round" stroke-linejoin="round"/>
<path d="M55.7819 158.959L55.6784 159.493L54.5597 165.237L51.0591 183.233" stroke="#E6DCFA" stroke-width="3" stroke-linecap="round" stroke-linejoin="round"/>
<path d="M29.845 178.344L31.0956 183.233" stroke="#E6DCFA" stroke-width="3" stroke-linecap="round" stroke-linejoin="round"/>
<path d="M24.8773 158.959L25.0564 159.66L26.5992 165.687L27.2151 168.081L29.842 178.344" stroke="#E6DCFA" stroke-width="3" stroke-linecap="round" stroke-linejoin="round"/>
<path d="M26.5988 165.688C26.5988 165.688 15.9054 170.43 22.8488 175.297C24.3101 176.322 26.5504 177.352 29.8404 178.345H29.8435" stroke="#E6DCFA" stroke-width="3" stroke-linecap="round" stroke-linejoin="round"/>
<path d="M208.952 175.296C208.952 175.296 210.005 175.104 211.623 174.843C212.742 174.664 214.131 174.45 215.63 174.243C217.069 174.042 218.606 173.847 220.099 173.696C222.672 173.435 225.107 173.297 226.679 173.46C227.985 173.563 229.263 173.892 230.456 174.432C231.933 175.154 232.244 175.971 232.244 175.971" stroke="#E6DCFA" stroke-width="3" stroke-linecap="round" stroke-linejoin="round"/>
<path d="M55.7816 98.8456L47.8069 96.8494" stroke="#E6DCFA" stroke-width="3" stroke-linecap="round" stroke-linejoin="round"/>
<path d="M57.1228 106.979L42.0397 117.404" stroke="#E6DCFA" stroke-width="3" stroke-linecap="round" stroke-linejoin="round"/>
<path d="M65.2931 113.855L63.4447 118.291" stroke="#E6DCFA" stroke-width="3" stroke-linecap="round" stroke-linejoin="round"/>
<path d="M76.1987 112.545L82.6313 121.264" stroke="#E6DCFA" stroke-width="3" stroke-linecap="round" stroke-linejoin="round"/>
<path d="M79.4147 106.071L83.5184 106.978" stroke="#E6DCFA" stroke-width="3" stroke-linecap="round" stroke-linejoin="round"/>
<path d="M79.4147 97.8478L86.6238 93.235" stroke="#E6DCFA" stroke-width="3" stroke-linecap="round" stroke-linejoin="round"/>
<path d="M90.4141 71.5675L89.0903 73.5497C89.0503 73.6097 88.9931 73.6559 88.9263 73.6822C88.8591 73.7084 88.7856 73.7137 88.7159 73.6969C88.6459 73.6803 88.5825 73.6425 88.5347 73.5887C88.4869 73.535 88.4566 73.4678 88.4481 73.3962L88.165 71.0294C88.1569 70.9603 88.1281 70.8953 88.0831 70.8425C88.0378 70.7897 87.9778 70.7512 87.9109 70.7322L85.6166 70.0859C85.5475 70.0666 85.4859 70.0262 85.44 69.9706C85.3944 69.915 85.3669 69.8469 85.3613 69.775C85.3556 69.7034 85.3719 69.6316 85.4081 69.5697C85.4444 69.5075 85.4988 69.4578 85.5641 69.4275L87.7278 68.4275C87.7909 68.3984 87.8441 68.3512 87.8803 68.2919C87.9166 68.2325 87.9347 68.1637 87.9319 68.0941L87.8381 65.7122C87.8353 65.6406 87.8547 65.5694 87.8934 65.5091C87.9322 65.4484 87.9888 65.4012 88.055 65.3734C88.1216 65.3459 88.1947 65.3394 88.265 65.3547C88.3353 65.37 88.3994 65.4066 88.4481 65.4591L90.0681 67.2075C90.1156 67.2587 90.1769 67.2947 90.2447 67.3106C90.3122 67.3269 90.3831 67.3228 90.4484 67.2984L92.6844 66.4728C92.7519 66.4481 92.8253 66.4444 92.895 66.4628C92.9647 66.4809 93.0269 66.5197 93.0738 66.5744C93.1206 66.6291 93.1494 66.6969 93.1566 66.7684C93.1638 66.84 93.1488 66.9119 93.1138 66.9747L91.9516 69.0559C91.9178 69.1169 91.9025 69.1862 91.9081 69.2556C91.9138 69.325 91.9397 69.3912 91.9828 69.4456L93.4591 71.3172C93.5034 71.3737 93.5294 71.4425 93.5334 71.5141C93.5375 71.5856 93.5197 71.6566 93.4825 71.7178C93.445 71.7791 93.3897 71.8272 93.3244 71.8562C93.2588 71.8853 93.1856 71.8934 93.1153 71.8797L90.7769 71.4175C90.7084 71.4037 90.6372 71.4106 90.5725 71.4375C90.5081 71.4641 90.4528 71.5094 90.4141 71.5675Z" fill="#E6DCFA"/>
<path d="M109.023 59.8037L111.552 56.1162" stroke="#E6DCFA" stroke-width="3" stroke-linecap="round" stroke-linejoin="round"/>
<path d="M111.964 59.3859L108.409 56.2884" stroke="#E6DCFA" stroke-width="3" stroke-linecap="round" stroke-linejoin="round"/>
<path d="M55.6441 81.8397L57.5666 78.4375" stroke="#E6DCFA" stroke-width="3" stroke-linecap="round" stroke-linejoin="round"/>
<path d="M58.3244 81.5178L54.7722 79.0081" stroke="#E6DCFA" stroke-width="3" stroke-linecap="round" stroke-linejoin="round"/>
<path d="M123.815 92.3391C124.372 91.1847 125.122 90.1344 126.033 89.2334" stroke="#E6DCFA" stroke-width="3" stroke-linecap="round" stroke-linejoin="round"/>
<path d="M126.313 91.7691C125.327 91.09 124.482 90.2272 123.823 89.2278" stroke="#E6DCFA" stroke-width="3" stroke-linecap="round" stroke-linejoin="round"/>
<path d="M235.903 49.7503L239.453 46.2012" stroke="#E6DCFA" stroke-width="3" stroke-linecap="round" stroke-linejoin="round"/>
<path d="M238.969 49.5591L236.313 46.0078" stroke="#E6DCFA" stroke-width="3" stroke-linecap="round" stroke-linejoin="round"/>
<path d="M216.353 47.0744L218.134 43.3075" stroke="#E6DCFA" stroke-width="3" stroke-linecap="round" stroke-linejoin="round"/>
<path d="M219.064 45.4909L215.737 44.1606" stroke="#E6DCFA" stroke-width="3" stroke-linecap="round" stroke-linejoin="round"/>
<path d="M230.337 33.0953L232.56 30.6604" stroke="#E6DCFA" stroke-width="3" stroke-linecap="round" stroke-linejoin="round"/>
<path d="M232.594 33.3209L229.933 30.437" stroke="#E6DCFA" stroke-width="3" stroke-linecap="round" stroke-linejoin="round"/>
<path d="M107.027 125.832C107.111 135.228 106.805 144.617 106.11 154" stroke="#E6DCFA" stroke-width="3" stroke-linecap="round" stroke-linejoin="round"/>
<path d="M126.778 133.258L125.335 131.485" stroke="#E6DCFA" stroke-width="3" stroke-linecap="round" stroke-linejoin="round"/>
<path d="M114.703 143.481L116.691 140.702" stroke="#E6DCFA" stroke-width="3" stroke-linecap="round" stroke-linejoin="round"/>
<path d="M127.033 152.075L125.359 150.533" stroke="#E6DCFA" stroke-width="3" stroke-linecap="round" stroke-linejoin="round"/>
<path d="M97.4925 140.25L95.1634 138.032" stroke="#E6DCFA" stroke-width="3" stroke-linecap="round" stroke-linejoin="round"/>
<path d="M79.7706 134.054L81.1088 131.84" stroke="#E6DCFA" stroke-width="3" stroke-linecap="round" stroke-linejoin="round"/>
<path d="M82.3363 150.625L80.3125 149.108" stroke="#E6DCFA" stroke-width="3" stroke-linecap="round" stroke-linejoin="round"/>
<path d="M65.12 140.773C64.3409 140.476 63.6578 139.97 63.145 139.312" stroke="#E6DCFA" stroke-width="3" stroke-linecap="round" stroke-linejoin="round"/>
<path d="M62.9091 160.778L64.4716 157.788" stroke="#E6DCFA" stroke-width="3" stroke-linecap="round" stroke-linejoin="round"/>
<path d="M79.9766 166.859C79.225 166.263 78.6044 165.518 78.1531 164.672" stroke="#E6DCFA" stroke-width="3" stroke-linecap="round" stroke-linejoin="round"/>
<path d="M92.8728 160.79L94.2134 158.467" stroke="#E6DCFA" stroke-width="3" stroke-linecap="round" stroke-linejoin="round"/>
<path d="M107.797 166.438L105.666 164.693" stroke="#E6DCFA" stroke-width="3" stroke-linecap="round" stroke-linejoin="round"/>
<path d="M42.8047 142.295C43.2491 140.397 44.0716 138.607 45.2231 137.034C46.3747 135.46 47.8316 134.135 49.5069 133.137" stroke="#E6DCFA" stroke-width="3" stroke-linecap="round" stroke-linejoin="round"/>
<g opacity="0.1">
<path d="M114.344 89.6741C111.173 88.5697 106.779 89.1031 103.658 90.2247C100.395 91.3972 97.8728 93.3644 96.9328 96.8247C95.9084 100.597 96.8525 104.735 97.0544 108.557L97.3719 114.569C97.4441 115.938 98.0578 118.676 96.7694 119.651C96.2291 120.059 95.3006 120.18 94.6816 120.449C93.9962 120.726 93.3813 121.151 92.8809 121.695C91.8041 122.896 91.6706 124.796 90.3759 125.787C89.1738 126.707 87.3522 126.777 85.9156 127.022C83.8922 127.365 81.8738 127.747 79.8572 128.129C72.5516 129.512 65.0072 131.267 58.7497 135.479C52.5231 139.67 47.8244 145.905 47.0463 153.51C46.9166 154.779 48.2231 155.868 49.4047 155.868C50.7878 155.868 51.6331 154.783 51.7631 153.51C52.3772 147.506 56.6069 142.451 61.4506 139.172C67.2559 135.243 74.2022 133.584 80.9725 132.178C84.34 131.479 87.9575 131.085 91.1222 129.678C92.4222 129.1 93.5944 128.227 94.2784 126.953C94.5797 126.322 94.8269 125.668 95.0175 124.996C95.4019 123.854 95.78 123.699 96.8675 123.33C100.084 122.24 101.106 119.862 101.021 116.597C100.921 112.712 100.655 108.836 100.637 104.949C100.618 101.08 99.9647 97.2616 102.771 94.1562C104.13 92.6522 106.073 91.9641 108.019 91.6119C110.111 91.2331 112.307 91.4869 114.341 90.8884C114.47 90.8481 114.584 90.7675 114.665 90.6584C114.745 90.5491 114.789 90.4169 114.789 90.2809C114.789 90.145 114.745 90.0128 114.665 89.9034C114.584 89.7944 114.47 89.7137 114.341 89.6737L114.344 89.6741Z" fill="#E6DCFA"/>
</g>
<g opacity="0.1">
<path d="M53.5656 165.135C54.0031 165.708 54.1928 166.225 54.8003 166.688C55.2844 167.033 55.8206 167.298 56.3887 167.473C57.6587 167.925 58.9784 168.293 60.2816 168.635C62.7134 169.272 65.1637 169.834 67.6325 170.322C72.8844 171.365 78.1925 172.1 83.5303 172.521C94.0703 173.38 104.677 172.873 115.087 171.014C116.319 170.791 116.99 169.307 116.694 168.185C116.342 166.852 115.09 166.414 113.865 166.578C103.91 167.942 93.8384 168.244 83.8197 167.479C78.8394 167.082 73.8872 166.387 68.9897 165.399C66.5247 164.902 64.0772 164.328 61.6437 163.694C60.5206 163.401 59.3969 163.112 58.2722 162.826C57.6934 162.643 57.0978 162.52 56.4941 162.459C55.6722 162.422 55.1725 162.746 54.4412 162.985C53.6425 163.245 52.9566 164.341 53.5662 165.136L53.5656 165.135Z" fill="#E6DCFA"/>
</g>
</g>
<g clip-path="url(#clip0_316_168)">
<path d="M68.0562 246.427C59.6815 251.235 52.6823 258.504 48.191 267.187C45.9415 271.529 43.6161 276.779 44.6116 281.797C45.5236 286.379 49.3841 289.027 53.5183 290.27C58.4276 291.746 63.8005 291.544 68.8466 291.155C74.759 290.697 80.6107 289.649 86.5003 288.919C89.3198 288.569 92.1848 288.204 95.027 288.243C97.3145 288.266 99.6551 288.763 101.122 290.72C103.782 294.254 101.905 299.559 99.9971 302.961C97.3145 307.76 93.5907 311.861 89.6465 315.597C85.7024 319.333 81.5378 322.61 77.0465 325.499C68.4514 331.037 57.3865 336.583 47.0283 333.274C44.8624 332.583 42.6205 331.309 41.6478 329.103C40.6751 326.897 41.1158 324.637 42.119 322.634C44.376 318.113 48.9586 315.178 53.2447 312.949C57.9792 310.494 63.0785 308.863 68.2234 307.582C73.3683 306.3 78.5284 305.392 83.7569 304.809C104.929 302.456 126.596 305.795 146.202 314.246C148.649 315.302 151.066 316.436 153.452 317.632C154.091 317.95 155.033 317.71 155.603 317.344C156.021 317.073 156.515 316.475 155.869 316.133C146.081 310.991 135.548 307.318 124.779 305.034C114.011 302.751 102.748 301.842 91.668 302.433C80.5879 303.023 69.4849 304.887 59.0432 308.63C53.8299 310.502 48.8142 313.018 44.4292 316.475C40.9866 319.185 37.1717 323.837 38.1596 328.629C39.2387 333.887 45.478 335.456 49.9389 335.884C55.555 336.412 61.2166 335.076 66.4223 333.018C76.7577 328.94 86.3027 322.043 94.1379 314.106C97.9301 310.261 101.593 305.99 103.873 301.003C105.56 297.322 106.563 292.002 103.356 288.825C101.54 287.031 98.9256 286.542 96.4937 286.48C93.6059 286.41 90.6801 286.759 87.8151 287.093C81.743 287.808 75.709 288.926 69.6141 289.431C64.5452 289.851 58.914 290.115 54.0807 288.188C52.0896 287.396 50.2429 286.208 48.9662 284.422C47.4083 282.247 47.0815 279.474 47.4463 276.857C48.1682 271.692 50.8509 266.683 53.6855 262.426C56.5201 258.17 59.8943 254.504 63.7929 251.367C65.6928 249.837 67.7219 248.485 69.8269 247.274C70.2677 247.017 70.6173 246.474 70.0777 246.132C69.5381 245.79 68.5654 246.116 68.0562 246.404V246.427Z" fill="#E6DCFA"/>
<path d="M135.115 316.824C142.304 317.678 149.501 318.533 156.743 318.851C157.336 318.875 159.942 317.95 158.635 317.135C155.162 314.96 151.788 312.622 148.535 310.114C145.283 307.605 142.304 304.809 139.127 302.215C138.398 301.617 135.487 302.502 136.331 303.419C139.158 306.471 142.547 309.096 145.83 311.613C149.113 314.129 152.563 316.513 156.089 318.719L157.982 317.003C150.975 316.7 144.006 315.9 137.045 315.077C136.293 314.991 135.381 315.123 134.811 315.69C134.377 316.117 134.393 316.746 135.107 316.832L135.115 316.824Z" fill="#E6DCFA"/>
</g>
<path d="M170.656 332.464C170.016 332.304 169.496 331.968 169.096 331.456C168.712 330.96 168.4 330.36 168.16 329.656C168.144 329.448 168.136 329.16 168.136 328.792C168.152 328.424 168.176 328.08 168.208 327.76C168.24 327.44 168.272 327.256 168.304 327.208C168.352 327.176 168.376 327.08 168.376 326.92C168.36 326.856 168.368 326.752 168.4 326.608C168.448 326.448 168.496 326.288 168.544 326.128C168.624 325.936 168.664 325.784 168.664 325.672C168.664 325.544 168.656 325.448 168.64 325.384C168.64 325.384 168.664 325.336 168.712 325.24C168.76 325.128 168.816 325.04 168.88 324.976C168.976 324.88 169.016 324.784 169 324.688C169 324.592 169 324.544 169 324.544C168.984 324.48 169 324.392 169.048 324.28C169.096 324.168 169.144 324.08 169.192 324.016C169.224 323.984 169.264 323.92 169.312 323.824C169.376 323.712 169.408 323.656 169.408 323.656C169.408 323.608 169.44 323.48 169.504 323.272C169.584 323.064 169.672 322.84 169.768 322.6C169.864 322.344 169.952 322.112 170.032 321.904C170.128 321.696 170.2 321.56 170.248 321.496V321.448C170.312 321.288 170.4 321.12 170.512 320.944C170.528 320.864 170.568 320.736 170.632 320.56C170.696 320.368 170.768 320.184 170.848 320.008C171.024 319.624 171.24 319.192 171.496 318.712C171.768 318.216 172.056 317.728 172.36 317.248C172.664 316.752 172.952 316.312 173.224 315.928C173.512 315.528 173.76 315.232 173.968 315.04C174.24 314.736 174.512 314.52 174.784 314.392C175.072 314.248 175.336 314.296 175.576 314.536C175.688 314.648 175.784 314.816 175.864 315.04C175.944 315.248 175.976 315.448 175.96 315.64C175.96 315.816 175.896 315.912 175.768 315.928C175.656 315.992 175.504 316.176 175.312 316.48C175.12 316.768 174.904 317.112 174.664 317.512C174.44 317.912 174.216 318.328 173.992 318.76C173.768 319.176 173.56 319.552 173.368 319.888C173.16 320.352 172.968 320.76 172.792 321.112C172.616 321.448 172.528 321.616 172.528 321.616C172.512 321.664 172.496 321.704 172.48 321.736C172.464 321.768 172.448 321.8 172.432 321.832C172.192 322.328 171.992 322.784 171.832 323.2C171.672 323.6 171.512 324.024 171.352 324.472C171.256 324.584 171.2 324.696 171.184 324.808C171.168 324.92 171.16 324.976 171.16 324.976C171.128 324.96 171.104 325 171.088 325.096C171.072 325.176 171.04 325.272 170.992 325.384C170.912 325.448 170.864 325.552 170.848 325.696C170.832 325.824 170.824 325.952 170.824 326.08C170.712 326.368 170.608 326.72 170.512 327.136C170.416 327.536 170.344 327.928 170.296 328.312C170.264 328.68 170.256 328.968 170.272 329.176C170.304 329.448 170.376 329.68 170.488 329.872C170.616 330.048 170.792 330.192 171.016 330.304C171.192 330.384 171.352 330.456 171.496 330.52C171.64 330.568 171.768 330.592 171.88 330.592C172.008 330.608 172.168 330.608 172.36 330.592C172.568 330.56 172.848 330.512 173.2 330.448H173.176C173.384 330.416 173.6 330.376 173.824 330.328C174.064 330.264 174.288 330.208 174.496 330.16C174.688 330.128 174.872 330.096 175.048 330.064C175.224 330.016 175.36 329.976 175.456 329.944C175.808 329.848 176.088 329.768 176.296 329.704C176.52 329.64 176.672 329.64 176.752 329.704C176.832 329.768 176.92 329.888 177.016 330.064C177.112 330.24 177.136 330.4 177.088 330.544C177.056 330.624 176.896 330.784 176.608 331.024C176.32 331.28 175.992 331.528 175.624 331.768C175.256 332.024 174.92 332.2 174.616 332.296C174.296 332.44 173.864 332.536 173.32 332.584C172.792 332.648 172.28 332.664 171.784 332.632C171.288 332.6 170.912 332.544 170.656 332.464ZM182.963 330.52C182.483 330.792 181.971 330.952 181.427 331C180.899 331.032 180.403 330.96 179.939 330.784C179.475 330.592 179.099 330.312 178.811 329.944C178.651 329.736 178.499 329.408 178.355 328.96C178.211 328.496 178.187 327.872 178.283 327.088C178.379 326.352 178.603 325.608 178.955 324.856C179.323 324.104 179.771 323.44 180.299 322.864C180.827 322.288 181.403 321.896 182.027 321.688C182.251 321.608 182.475 321.552 182.699 321.52C182.939 321.472 183.251 321.464 183.635 321.496C184.003 321.544 184.331 321.64 184.619 321.784C184.907 321.912 185.115 322.056 185.243 322.216C185.499 322.472 185.667 322.72 185.747 322.96C185.827 323.2 185.859 323.432 185.843 323.656C185.763 324.168 185.531 324.72 185.147 325.312C184.779 325.904 184.259 326.344 183.587 326.632C183.315 326.744 182.995 326.816 182.627 326.848C182.259 326.88 181.755 326.832 181.115 326.704C180.731 326.624 180.475 326.664 180.347 326.824C180.235 326.984 180.187 327.296 180.203 327.76C180.235 328.048 180.299 328.304 180.395 328.528C180.507 328.736 180.707 328.88 180.995 328.96C181.363 329.024 181.627 329.032 181.787 328.984C181.947 328.92 182.147 328.832 182.387 328.72C182.515 328.64 182.635 328.552 182.747 328.456C182.875 328.36 182.995 328.264 183.107 328.168C183.235 328.072 183.339 328 183.419 327.952C183.499 327.888 183.579 327.848 183.659 327.832C183.739 327.816 183.819 327.808 183.899 327.808C184.075 327.824 184.243 327.92 184.403 328.096C184.563 328.272 184.667 328.44 184.715 328.6C184.715 328.728 184.635 328.912 184.475 329.152C184.315 329.376 184.099 329.616 183.827 329.872C183.571 330.112 183.283 330.328 182.963 330.52ZM182.651 325.168C182.763 325.12 182.923 325.008 183.131 324.832C183.355 324.656 183.555 324.472 183.731 324.28C183.907 324.072 183.995 323.912 183.995 323.8C183.995 323.624 183.875 323.472 183.635 323.344C183.411 323.216 183.115 323.192 182.747 323.272C182.619 323.304 182.467 323.392 182.291 323.536C182.115 323.68 181.939 323.848 181.763 324.04C181.587 324.216 181.435 324.392 181.307 324.568C181.179 324.728 181.091 324.856 181.043 324.952C181.107 325.032 181.235 325.096 181.427 325.144C181.619 325.192 181.827 325.216 182.051 325.216C182.291 325.216 182.491 325.2 182.651 325.168ZM187.762 331.024C187.586 330.992 187.394 330.888 187.186 330.712C186.978 330.52 186.786 330.312 186.61 330.088C186.45 329.848 186.346 329.648 186.298 329.488C186.298 329.456 186.274 329.416 186.226 329.368C186.194 329.32 186.178 329.296 186.178 329.296C186.114 329.248 186.074 329.04 186.058 328.672C186.058 328.288 186.082 327.864 186.13 327.4C186.178 326.936 186.234 326.568 186.298 326.296C186.378 326.04 186.498 325.696 186.658 325.264C186.818 324.816 186.954 324.416 187.066 324.064L187.714 322.672L186.754 322.408C186.642 322.376 186.546 322.312 186.466 322.216C186.402 322.12 186.37 322.04 186.37 321.976C186.37 321.848 186.442 321.664 186.586 321.424C186.73 321.184 186.834 321.064 186.898 321.064C186.978 321.08 187.122 321.088 187.33 321.088C187.554 321.088 187.77 321.08 187.978 321.064C188.186 321.048 188.314 321.032 188.362 321.016C188.426 320.984 188.49 320.944 188.554 320.896C188.618 320.832 188.666 320.744 188.698 320.632C188.778 320.456 188.85 320.32 188.914 320.224C188.978 320.128 189.066 319.984 189.178 319.792C189.29 319.584 189.378 319.408 189.442 319.264C189.522 319.12 189.642 318.92 189.802 318.664C189.882 318.552 189.97 318.416 190.066 318.256C190.162 318.096 190.282 317.96 190.426 317.848C190.57 317.72 190.802 317.632 191.122 317.584C191.458 317.52 191.746 317.592 191.986 317.8C192.114 317.96 192.186 318.112 192.202 318.256C192.218 318.4 192.154 318.584 192.01 318.808C191.882 319.08 191.73 319.328 191.554 319.552C191.394 319.76 191.242 320 191.098 320.272C190.842 320.624 190.794 320.824 190.954 320.872C191.114 320.92 191.562 320.888 192.298 320.776C192.762 320.696 193.098 320.744 193.306 320.92C193.514 321.096 193.634 321.32 193.666 321.592C193.714 321.976 193.674 322.208 193.546 322.288C193.418 322.368 193.05 322.408 192.442 322.408C192.058 322.472 191.73 322.512 191.458 322.528C191.186 322.528 190.986 322.528 190.858 322.528C190.65 322.544 190.514 322.552 190.45 322.552C190.386 322.552 190.29 322.568 190.162 322.6C190.034 322.632 189.938 322.688 189.874 322.768C189.826 322.832 189.77 322.928 189.706 323.056C189.642 323.12 189.546 323.288 189.418 323.56C189.29 323.832 189.13 324.128 188.938 324.448C188.714 325.12 188.522 325.768 188.362 326.392C188.218 327 188.09 327.608 187.978 328.216C187.93 328.52 187.938 328.744 188.002 328.888C188.082 329.016 188.29 329.096 188.626 329.128C188.802 329.144 189.058 329.144 189.394 329.128C189.73 329.096 190.01 329.048 190.234 328.984C190.41 328.904 190.594 328.824 190.786 328.744C190.978 328.648 191.154 328.552 191.314 328.456C191.458 328.376 191.602 328.296 191.746 328.216C191.89 328.12 191.962 328.072 191.962 328.072C192.042 327.944 192.154 327.968 192.298 328.144C192.458 328.304 192.57 328.48 192.634 328.672C192.634 328.864 192.594 329.096 192.514 329.368C192.434 329.624 192.138 329.896 191.626 330.184C190.906 330.632 190.186 330.904 189.466 331C188.746 331.096 188.178 331.104 187.762 331.024ZM196.548 320.584C196.388 320.6 196.188 320.6 195.948 320.584C195.724 320.568 195.588 320.416 195.54 320.128C195.524 320.016 195.54 319.912 195.588 319.816C195.636 319.72 195.7 319.616 195.78 319.504C195.972 319.184 196.188 318.832 196.428 318.448C196.684 318.064 196.852 317.752 196.932 317.512C196.932 317.448 196.94 317.392 196.956 317.344C196.684 317.392 196.404 317.296 196.116 317.056C195.812 316.768 195.724 316.392 195.852 315.928C195.996 315.448 196.276 315.064 196.692 314.776C196.98 314.6 197.252 314.504 197.508 314.488C197.764 314.472 198.036 314.528 198.324 314.656C198.596 314.816 198.82 315.064 198.996 315.4C199.172 315.72 199.22 315.984 199.14 316.192C199.092 316.56 199.004 316.904 198.876 317.224C198.764 317.544 198.66 317.856 198.564 318.16C198.468 318.512 198.268 318.888 197.964 319.288C197.676 319.672 197.396 320.024 197.124 320.344C197.14 320.408 197.092 320.448 196.98 320.464C196.868 320.48 196.724 320.52 196.548 320.584ZM197.512 331.144C196.968 330.92 196.568 330.688 196.312 330.448C196.072 330.192 195.976 329.968 196.024 329.776C196.056 329.68 196.112 329.592 196.192 329.512C196.272 329.432 196.448 329.4 196.72 329.416C197.008 329.416 197.448 329.488 198.04 329.632C198.216 329.632 198.392 329.624 198.568 329.608C198.744 329.592 198.904 329.568 199.048 329.536C199.208 329.504 199.336 329.464 199.432 329.416C199.512 329.384 199.536 329.344 199.504 329.296C199.472 329.232 199.416 329.168 199.336 329.104C199.272 329.024 199.2 328.976 199.12 328.96C199.04 328.928 198.968 328.912 198.904 328.912C198.872 328.832 198.8 328.752 198.688 328.672C198.592 328.592 198.472 328.504 198.328 328.408C197.976 328.12 197.656 327.864 197.368 327.64C197.08 327.416 196.968 327.248 197.032 327.136C197.032 327.072 197.032 327.04 197.032 327.04C197.032 327.024 197.032 327.016 197.032 327.016C196.92 327.016 196.816 326.864 196.72 326.56C196.624 326.24 196.576 325.952 196.576 325.696C196.576 325.376 196.64 325.056 196.768 324.736C196.912 324.416 197.088 324.112 197.296 323.824C197.52 323.536 197.744 323.28 197.968 323.056C198.272 322.768 198.592 322.488 198.928 322.216C199.28 321.928 199.656 321.672 200.056 321.448C200.472 321.224 200.928 321.048 201.424 320.92C201.648 320.872 201.904 320.848 202.192 320.848C202.48 320.848 202.688 320.888 202.816 320.968C202.944 320.888 203.104 320.912 203.296 321.04C203.488 321.152 203.68 321.312 203.872 321.52C204.064 321.728 204.208 321.936 204.304 322.144C204.304 322.336 204.296 322.576 204.28 322.864C204.28 323.136 204.264 323.376 204.232 323.584C204.2 323.792 204.128 323.896 204.016 323.896C204.016 323.896 203.992 323.904 203.944 323.92C203.912 323.92 203.896 323.96 203.896 324.04C203.896 324.2 203.776 324.384 203.536 324.592C203.232 324.8 202.944 324.968 202.672 325.096C202.4 325.224 202.192 325.232 202.048 325.12C201.952 325.056 201.864 324.992 201.784 324.928C201.704 324.864 201.632 324.784 201.568 324.688C201.568 324.688 201.544 324.656 201.496 324.592C201.464 324.512 201.448 324.44 201.448 324.376C201.448 324.312 201.472 324.256 201.52 324.208C201.568 324.144 201.592 324.112 201.592 324.112C201.816 323.904 201.984 323.712 202.096 323.536C202.224 323.36 202.312 323.208 202.36 323.08C202.408 322.936 202.432 322.824 202.432 322.744C202.432 322.648 202.408 322.592 202.36 322.576C202.328 322.544 202.248 322.528 202.12 322.528C202.04 322.528 201.864 322.592 201.592 322.72C201.336 322.848 201.064 323.008 200.776 323.2C200.488 323.376 200.264 323.536 200.104 323.68C200.04 323.792 199.992 323.864 199.96 323.896C199.944 323.928 199.904 323.944 199.84 323.944C199.84 323.88 199.8 323.888 199.72 323.968C199.64 324.048 199.544 324.16 199.432 324.304C199.32 324.448 199.208 324.6 199.096 324.76C198.984 324.92 198.896 325.048 198.832 325.144C198.816 325.288 198.776 325.424 198.712 325.552C198.664 325.664 198.648 325.784 198.664 325.912C198.68 326.072 198.76 326.224 198.904 326.368C199.048 326.512 199.256 326.696 199.528 326.92C200.088 327.336 200.504 327.664 200.776 327.904C201.064 328.144 201.264 328.336 201.376 328.48C201.488 328.624 201.56 328.768 201.592 328.912C201.864 329.408 201.896 329.84 201.688 330.208C201.48 330.56 201.16 330.832 200.728 331.024C200.568 331.104 200.288 331.176 199.888 331.24C199.488 331.32 199.064 331.352 198.616 331.336C198.184 331.336 197.816 331.272 197.512 331.144ZM211.979 335.656C211.803 335.672 211.531 335.632 211.163 335.536C210.795 335.456 210.435 335.296 210.083 335.056C209.651 334.688 209.355 334.384 209.195 334.144C209.035 333.904 208.947 333.688 208.931 333.496C208.931 333.32 208.939 333.16 208.955 333.016C209.035 332.664 209.203 332.496 209.459 332.512C209.731 332.528 209.939 332.6 210.083 332.728C210.243 332.856 210.411 333.008 210.587 333.184C210.779 333.376 210.963 333.544 211.139 333.688C211.331 333.832 211.491 333.896 211.619 333.88C211.939 333.848 212.203 333.712 212.411 333.472C212.619 333.248 212.827 332.888 213.035 332.392C213.163 332.04 213.259 331.736 213.323 331.48C213.403 331.224 213.483 330.944 213.563 330.64C213.643 330.336 213.739 329.928 213.851 329.416C213.931 329.048 213.987 328.792 214.019 328.648C214.067 328.488 214.091 328.392 214.091 328.36C214.091 328.312 214.083 328.288 214.067 328.288C214.067 328.288 214.011 328.32 213.899 328.384C213.787 328.448 213.627 328.52 213.419 328.6C213.227 328.68 213.011 328.76 212.771 328.84C212.323 328.984 211.875 329.112 211.427 329.224C210.979 329.32 210.635 329.328 210.395 329.248C210.155 329.152 209.963 328.992 209.819 328.768C209.675 328.544 209.579 328.304 209.531 328.048C209.499 327.792 209.491 327.584 209.507 327.424C209.539 327.296 209.611 327.088 209.723 326.8C209.835 326.512 209.963 326.208 210.107 325.888C210.251 325.568 210.387 325.288 210.515 325.048C210.643 324.808 210.747 324.68 210.827 324.664C210.891 324.632 210.947 324.568 210.995 324.472C211.059 324.36 211.091 324.272 211.091 324.208C211.107 324.144 211.171 324.04 211.283 323.896C211.411 323.752 211.771 323.472 212.363 323.056C212.955 322.496 213.491 322.08 213.971 321.808C214.451 321.52 214.891 321.36 215.291 321.328C215.403 321.344 215.507 321.352 215.603 321.352C215.715 321.352 215.771 321.352 215.771 321.352C215.771 321.352 215.859 321.376 216.035 321.424C216.211 321.472 216.387 321.536 216.563 321.616C216.771 321.696 216.995 321.888 217.235 322.192C217.475 322.48 217.683 322.8 217.859 323.152C218.035 323.504 218.131 323.824 218.147 324.112C218.131 324.464 218.051 324.816 217.907 325.168C217.763 325.52 217.627 325.688 217.499 325.672C217.371 325.656 217.227 325.704 217.067 325.816C216.923 325.912 216.811 326.104 216.731 326.392C216.683 326.456 216.627 326.56 216.563 326.704C216.499 326.832 216.427 326.96 216.347 327.088C216.331 327.168 216.291 327.368 216.227 327.688C216.163 327.992 216.083 328.336 215.987 328.72C215.907 329.088 215.835 329.432 215.771 329.752C215.707 330.056 215.667 330.256 215.651 330.352C215.635 330.416 215.595 330.568 215.531 330.808C215.467 331.032 215.387 331.288 215.291 331.576C215.211 331.864 215.123 332.128 215.027 332.368C214.963 332.832 214.835 333.232 214.643 333.568C214.451 333.92 214.243 334.232 214.019 334.504C213.651 334.904 213.283 335.184 212.915 335.344C212.563 335.52 212.251 335.624 211.979 335.656ZM211.523 327.256C211.571 327.384 211.699 327.432 211.907 327.4C212.131 327.368 212.435 327.296 212.819 327.184C213.283 326.992 213.627 326.84 213.851 326.728C214.091 326.616 214.275 326.472 214.403 326.296C214.499 326.168 214.587 326.04 214.667 325.912C214.763 325.784 214.851 325.672 214.931 325.576C214.963 325.544 215.011 325.488 215.075 325.408C215.155 325.328 215.219 325.256 215.267 325.192C215.363 325.128 215.443 325.072 215.507 325.024C215.587 324.96 215.659 324.904 215.723 324.856C215.803 324.824 215.875 324.752 215.939 324.64C216.003 324.512 216.019 324.384 215.987 324.256C215.971 324.144 215.899 323.992 215.771 323.8C215.643 323.592 215.467 323.432 215.243 323.32C215.035 323.192 214.787 323.28 214.499 323.584C214.227 323.888 213.787 324.296 213.179 324.808C212.827 325.192 212.515 325.552 212.243 325.888C211.971 326.208 211.771 326.488 211.643 326.728C211.515 326.952 211.475 327.128 211.523 327.256ZM222.954 330.52C222.474 330.792 221.962 330.952 221.418 331C220.89 331.032 220.394 330.96 219.93 330.784C219.466 330.592 219.09 330.312 218.802 329.944C218.642 329.736 218.49 329.408 218.346 328.96C218.202 328.496 218.178 327.872 218.274 327.088C218.37 326.352 218.594 325.608 218.946 324.856C219.314 324.104 219.762 323.44 220.29 322.864C220.818 322.288 221.394 321.896 222.018 321.688C222.242 321.608 222.466 321.552 222.69 321.52C222.93 321.472 223.242 321.464 223.626 321.496C223.994 321.544 224.322 321.64 224.61 321.784C224.898 321.912 225.106 322.056 225.234 322.216C225.49 322.472 225.658 322.72 225.738 322.96C225.818 323.2 225.85 323.432 225.834 323.656C225.754 324.168 225.522 324.72 225.138 325.312C224.77 325.904 224.25 326.344 223.578 326.632C223.306 326.744 222.986 326.816 222.618 326.848C222.25 326.88 221.746 326.832 221.106 326.704C220.722 326.624 220.466 326.664 220.338 326.824C220.226 326.984 220.178 327.296 220.194 327.76C220.226 328.048 220.29 328.304 220.386 328.528C220.498 328.736 220.698 328.88 220.986 328.96C221.354 329.024 221.618 329.032 221.778 328.984C221.938 328.92 222.138 328.832 222.378 328.72C222.506 328.64 222.626 328.552 222.738 328.456C222.866 328.36 222.986 328.264 223.098 328.168C223.226 328.072 223.33 328 223.41 327.952C223.49 327.888 223.57 327.848 223.65 327.832C223.73 327.816 223.81 327.808 223.89 327.808C224.066 327.824 224.234 327.92 224.394 328.096C224.554 328.272 224.658 328.44 224.706 328.6C224.706 328.728 224.626 328.912 224.466 329.152C224.306 329.376 224.09 329.616 223.818 329.872C223.562 330.112 223.274 330.328 222.954 330.52ZM222.642 325.168C222.754 325.12 222.914 325.008 223.122 324.832C223.346 324.656 223.546 324.472 223.722 324.28C223.898 324.072 223.986 323.912 223.986 323.8C223.986 323.624 223.866 323.472 223.626 323.344C223.402 323.216 223.106 323.192 222.738 323.272C222.61 323.304 222.458 323.392 222.282 323.536C222.106 323.68 221.93 323.848 221.754 324.04C221.578 324.216 221.426 324.392 221.298 324.568C221.17 324.728 221.082 324.856 221.034 324.952C221.098 325.032 221.226 325.096 221.418 325.144C221.61 325.192 221.818 325.216 222.042 325.216C222.282 325.216 222.482 325.2 222.642 325.168ZM228.281 332.44C227.497 332.424 226.993 332.2 226.769 331.768C226.561 331.352 226.505 330.824 226.601 330.184C226.697 329.88 226.753 329.608 226.769 329.368C226.801 329.112 226.873 328.952 226.985 328.888C226.985 328.888 226.993 328.864 227.009 328.816C227.041 328.768 227.033 328.72 226.985 328.672C226.985 328.464 227.057 328.176 227.201 327.808C227.233 327.712 227.273 327.6 227.321 327.472C227.385 327.328 227.417 327.256 227.417 327.256C227.337 327.128 227.337 327.024 227.417 326.944C227.497 326.864 227.577 326.792 227.657 326.728C227.753 326.648 227.761 326.56 227.681 326.464C227.649 326.4 227.689 326.256 227.801 326.032C227.913 325.792 228.041 325.544 228.185 325.288C228.329 325.032 228.425 324.832 228.473 324.688C228.473 324.656 228.513 324.544 228.593 324.352C228.673 324.16 228.769 323.936 228.881 323.68C228.993 323.424 229.097 323.192 229.193 322.984C229.305 322.776 229.377 322.64 229.409 322.576C229.569 322.496 229.505 322.44 229.217 322.408C228.929 322.376 228.625 322.368 228.305 322.384C227.809 322.368 227.409 322.344 227.105 322.312C226.817 322.28 226.577 322.208 226.385 322.096C226.193 321.872 226.169 321.608 226.313 321.304C226.457 320.984 226.689 320.816 227.009 320.8C227.217 320.784 227.377 320.776 227.489 320.776C227.617 320.776 227.777 320.768 227.969 320.752C228.177 320.72 228.497 320.68 228.929 320.632L230.153 320.536L230.225 320.128C230.353 319.92 230.441 319.784 230.489 319.72C230.537 319.656 230.569 319.592 230.585 319.528C230.601 319.448 230.625 319.312 230.657 319.12C230.657 319.12 230.729 318.992 230.873 318.736C231.017 318.464 231.105 318.184 231.137 317.896C231.329 317.576 231.497 317.288 231.641 317.032C231.785 316.76 231.873 316.592 231.905 316.528C232.177 316.128 232.441 315.912 232.697 315.88C232.969 315.848 233.225 315.912 233.465 316.072C233.609 316.152 233.745 316.256 233.873 316.384C234.001 316.496 234.081 316.648 234.113 316.84C234.145 317.016 234.073 317.248 233.897 317.536C233.865 317.6 233.817 317.72 233.753 317.896C233.689 318.056 233.641 318.192 233.609 318.304C233.513 318.416 233.393 318.6 233.249 318.856C233.121 319.096 233.033 319.344 232.985 319.6C232.857 319.872 232.777 320.04 232.745 320.104C232.713 320.168 232.665 320.2 232.601 320.2C232.633 320.36 232.729 320.44 232.889 320.44C233.049 320.424 233.313 320.408 233.681 320.392C233.985 320.36 234.193 320.328 234.305 320.296C234.433 320.248 234.577 320.264 234.737 320.344C234.817 320.456 234.857 320.624 234.857 320.848C234.873 321.056 234.849 321.264 234.785 321.472C234.721 321.664 234.633 321.784 234.521 321.832C234.441 321.832 234.273 321.88 234.017 321.976C233.777 322.056 233.473 322.104 233.105 322.12L231.833 322.24L231.425 323.056C231.313 323.264 231.217 323.456 231.137 323.632C231.057 323.792 231.001 323.888 230.969 323.92C230.969 324.016 230.913 324.16 230.801 324.352C230.705 324.544 230.601 324.752 230.489 324.976C230.393 325.248 230.281 325.496 230.153 325.72C230.041 325.944 229.985 326.056 229.985 326.056C229.921 326.056 229.889 326.104 229.889 326.2C229.969 326.392 229.945 326.536 229.817 326.632C229.737 326.68 229.665 326.752 229.601 326.848C229.553 326.928 229.529 326.968 229.529 326.968C229.593 327.032 229.601 327.112 229.553 327.208C229.521 327.304 229.473 327.408 229.409 327.52C229.409 327.648 229.369 327.832 229.289 328.072C229.225 328.312 229.153 328.536 229.073 328.744C229.089 329.032 229.105 329.216 229.121 329.296C229.137 329.376 229.177 329.408 229.241 329.392C229.321 329.408 229.433 329.408 229.577 329.392C229.721 329.376 229.825 329.368 229.889 329.368C230.129 329.256 230.017 329.816 229.553 331.048C229.297 331.448 229.041 331.776 228.785 332.032C228.529 332.304 228.361 332.44 228.281 332.44ZM240.935 331.024C240.759 330.992 240.567 330.888 240.359 330.712C240.151 330.52 239.959 330.312 239.783 330.088C239.623 329.848 239.519 329.648 239.471 329.488C239.471 329.456 239.447 329.416 239.399 329.368C239.367 329.32 239.351 329.296 239.351 329.296C239.287 329.248 239.247 329.04 239.231 328.672C239.231 328.288 239.255 327.864 239.303 327.4C239.351 326.936 239.407 326.568 239.471 326.296C239.551 326.04 239.671 325.696 239.831 325.264C239.991 324.816 240.127 324.416 240.239 324.064L240.887 322.672L239.927 322.408C239.815 322.376 239.719 322.312 239.639 322.216C239.575 322.12 239.543 322.04 239.543 321.976C239.543 321.848 239.615 321.664 239.759 321.424C239.903 321.184 240.007 321.064 240.071 321.064C240.151 321.08 240.295 321.088 240.503 321.088C240.727 321.088 240.943 321.08 241.151 321.064C241.359 321.048 241.487 321.032 241.535 321.016C241.599 320.984 241.663 320.944 241.727 320.896C241.791 320.832 241.839 320.744 241.871 320.632C241.951 320.456 242.023 320.32 242.087 320.224C242.151 320.128 242.239 319.984 242.351 319.792C242.463 319.584 242.551 319.408 242.615 319.264C242.695 319.12 242.815 318.92 242.975 318.664C243.055 318.552 243.143 318.416 243.239 318.256C243.335 318.096 243.455 317.96 243.599 317.848C243.743 317.72 243.975 317.632 244.295 317.584C244.631 317.52 244.919 317.592 245.159 317.8C245.287 317.96 245.359 318.112 245.375 318.256C245.391 318.4 245.327 318.584 245.183 318.808C245.055 319.08 244.903 319.328 244.727 319.552C244.567 319.76 244.415 320 244.271 320.272C244.015 320.624 243.967 320.824 244.127 320.872C244.287 320.92 244.735 320.888 245.471 320.776C245.935 320.696 246.271 320.744 246.479 320.92C246.687 321.096 246.807 321.32 246.839 321.592C246.887 321.976 246.847 322.208 246.719 322.288C246.591 322.368 246.223 322.408 245.615 322.408C245.231 322.472 244.903 322.512 244.631 322.528C244.359 322.528 244.159 322.528 244.031 322.528C243.823 322.544 243.687 322.552 243.623 322.552C243.559 322.552 243.463 322.568 243.335 322.6C243.207 322.632 243.111 322.688 243.047 322.768C242.999 322.832 242.943 322.928 242.879 323.056C242.815 323.12 242.719 323.288 242.591 323.56C242.463 323.832 242.303 324.128 242.111 324.448C241.887 325.12 241.695 325.768 241.535 326.392C241.391 327 241.263 327.608 241.151 328.216C241.103 328.52 241.111 328.744 241.175 328.888C241.255 329.016 241.463 329.096 241.799 329.128C241.975 329.144 242.231 329.144 242.567 329.128C242.903 329.096 243.183 329.048 243.407 328.984C243.583 328.904 243.767 328.824 243.959 328.744C244.151 328.648 244.327 328.552 244.487 328.456C244.631 328.376 244.775 328.296 244.919 328.216C245.063 328.12 245.135 328.072 245.135 328.072C245.215 327.944 245.327 327.968 245.471 328.144C245.631 328.304 245.743 328.48 245.807 328.672C245.807 328.864 245.767 329.096 245.687 329.368C245.607 329.624 245.311 329.896 244.799 330.184C244.079 330.632 243.359 330.904 242.639 331C241.919 331.096 241.351 331.104 240.935 331.024ZM249.168 330.808C248.832 330.872 248.576 330.856 248.4 330.76C248.24 330.648 248.072 330.512 247.896 330.352C247.64 330.224 247.408 330.048 247.2 329.824C246.992 329.584 246.832 329.336 246.72 329.08C246.608 328.824 246.56 328.624 246.576 328.48C246.624 327.92 246.752 327.312 246.96 326.656C247.184 326 247.464 325.36 247.8 324.736C248.152 324.112 248.544 323.56 248.976 323.08C249.424 322.584 249.904 322.224 250.416 322C250.736 321.872 251.08 321.824 251.448 321.856C251.816 321.888 252.064 322.04 252.192 322.312C252.432 322.776 252.376 323.072 252.024 323.2C251.976 323.2 251.92 323.224 251.856 323.272C251.792 323.304 251.76 323.352 251.76 323.416C251.824 323.448 252 323.456 252.288 323.44C252.576 323.408 252.864 323.36 253.152 323.296C253.456 323.216 253.656 323.136 253.752 323.056C253.848 323.008 253.92 322.984 253.968 322.984C254.016 322.984 254.136 323 254.328 323.032C254.6 323.112 254.736 323.208 254.736 323.32C254.736 323.384 254.76 323.488 254.808 323.632C254.856 323.76 254.912 323.824 254.976 323.824C255.088 323.84 255.112 323.952 255.048 324.16C255 324.368 254.816 324.584 254.496 324.808C254.192 325 254 325.128 253.92 325.192C253.856 325.24 253.848 325.352 253.896 325.528C254.024 325.832 254.016 326.2 253.872 326.632C253.728 327.064 253.488 327.512 253.152 327.976C252.816 328.44 252.416 328.88 251.952 329.296C251.504 329.696 251.032 330.04 250.536 330.328C250.056 330.6 249.6 330.76 249.168 330.808ZM249.24 328.792C249.304 328.792 249.416 328.76 249.576 328.696C249.736 328.616 249.864 328.552 249.96 328.504C250.024 328.44 250.104 328.368 250.2 328.288C250.312 328.192 250.4 328.136 250.464 328.12C250.528 328.12 250.568 328.096 250.584 328.048C250.6 327.984 250.656 327.864 250.752 327.688C250.848 327.496 251.04 327.216 251.328 326.848C251.648 326.496 251.856 326.216 251.952 326.008C252.048 325.784 252.056 325.544 251.976 325.288C251.96 325.224 251.912 325.184 251.832 325.168C251.768 325.152 251.68 325.112 251.568 325.048C251.408 325.048 251.296 325.088 251.232 325.168C251.184 325.232 251.072 325.192 250.896 325.048L250.512 324.568L250.104 324.976C249.848 325.232 249.616 325.552 249.408 325.936C249.216 326.32 249.064 326.712 248.952 327.112C248.84 327.512 248.768 327.864 248.736 328.168C248.72 328.408 248.76 328.568 248.856 328.648C248.952 328.728 249.08 328.776 249.24 328.792ZM266.628 331.216C266.404 331.088 266.212 330.976 266.052 330.88C265.892 330.768 265.772 330.584 265.692 330.328C265.628 330.072 265.596 329.672 265.596 329.128C265.596 328.84 265.588 328.608 265.572 328.432C265.556 328.256 265.548 328.168 265.548 328.168C265.548 328.168 265.476 328.24 265.332 328.384C265.188 328.528 265.004 328.776 264.78 329.128C264.428 329.784 264.108 330.216 263.82 330.424C263.548 330.632 263.324 330.768 263.148 330.832C263.068 330.864 262.916 330.856 262.692 330.808C262.468 330.744 262.22 330.656 261.948 330.544C261.692 330.432 261.468 330.32 261.276 330.208C261.084 330.096 260.972 329.992 260.94 329.896C260.908 329.816 260.892 329.64 260.892 329.368C260.892 329.08 260.9 328.768 260.916 328.432C260.948 328.08 260.988 327.76 261.036 327.472C261.084 327.168 261.14 326.952 261.204 326.824C261.204 326.776 261.212 326.728 261.228 326.68C261.26 326.616 261.252 326.552 261.204 326.488C261.204 326.488 261.252 326.312 261.348 325.96C261.46 325.608 261.588 325.192 261.732 324.712C261.892 324.232 262.036 323.784 262.164 323.368C262.308 322.936 262.412 322.648 262.476 322.504C262.476 322.376 262.492 322.24 262.524 322.096C262.572 321.952 262.596 321.848 262.596 321.784C262.596 321.64 262.676 321.488 262.836 321.328C263.06 321.056 263.292 320.936 263.532 320.968C263.788 320.984 263.996 321.056 264.156 321.184C264.316 321.344 264.444 321.504 264.54 321.664C264.652 321.824 264.708 322.024 264.708 322.264C264.708 322.488 264.628 322.8 264.468 323.2C264.308 323.552 264.148 323.928 263.988 324.328C263.828 324.712 263.684 325.072 263.556 325.408C263.444 325.728 263.364 325.976 263.316 326.152C263.316 326.264 263.292 326.376 263.244 326.488C263.212 326.584 263.196 326.664 263.196 326.728C263.148 326.776 263.116 326.832 263.1 326.896C263.1 326.96 263.1 327.024 263.1 327.088C263.1 327.152 263.076 327.264 263.028 327.424C262.98 327.568 262.956 327.728 262.956 327.904C262.892 328.208 262.9 328.384 262.98 328.432C263.076 328.464 263.188 328.448 263.316 328.384C263.364 328.32 263.436 328.208 263.532 328.048C263.628 327.888 263.732 327.72 263.844 327.544C263.908 327.352 263.972 327.224 264.036 327.16C264.116 327.096 264.18 327.04 264.228 326.992C264.276 326.944 264.3 326.856 264.3 326.728C264.3 326.664 264.372 326.536 264.516 326.344C264.676 326.136 264.844 325.904 265.02 325.648C265.356 325.072 265.564 324.704 265.644 324.544C265.772 324.32 265.9 324.128 266.028 323.968C266.172 323.792 266.3 323.576 266.412 323.32C266.476 323.192 266.564 323.04 266.676 322.864C266.788 322.688 266.932 322.6 267.108 322.6C267.284 322.6 267.396 322.616 267.444 322.648C267.508 322.68 267.564 322.784 267.612 322.96C267.74 323.072 267.868 323.248 267.996 323.488C268.14 323.728 268.212 323.904 268.212 324.016C268.148 324.08 268.108 324.16 268.092 324.256C268.092 324.336 268.092 324.376 268.092 324.376C268.092 324.424 268.06 324.568 267.996 324.808C267.948 325.048 267.868 325.28 267.756 325.504C267.628 326.048 267.516 326.584 267.42 327.112C267.34 327.64 267.292 328.08 267.276 328.432C267.276 328.784 267.316 328.992 267.396 329.056C267.492 329.12 267.588 329.056 267.684 328.864C267.78 328.672 268.004 328.312 268.356 327.784C268.436 327.656 268.588 327.448 268.812 327.16C269.036 326.872 269.196 326.616 269.292 326.392C269.292 326.312 269.34 326.184 269.436 326.008C269.532 325.816 269.628 325.616 269.724 325.408C269.82 325.184 269.868 325 269.868 324.856C269.852 324.824 269.932 324.68 270.108 324.424C270.284 324.168 270.452 323.84 270.612 323.44C270.788 322.992 271.036 322.696 271.356 322.552C271.676 322.408 271.964 322.392 272.22 322.504C272.492 322.6 272.604 322.784 272.556 323.056C272.476 323.6 272.292 324.232 272.004 324.952C271.732 325.656 271.412 326.368 271.044 327.088C270.692 327.792 270.34 328.416 269.988 328.96C269.86 329.072 269.748 329.208 269.652 329.368C269.556 329.512 269.508 329.616 269.508 329.68C269.508 329.712 269.436 329.816 269.292 329.992C269.164 330.168 269.004 330.368 268.812 330.592C268.62 330.8 268.42 330.968 268.212 331.096C268.004 331.256 267.748 331.344 267.444 331.36C267.156 331.376 266.884 331.328 266.628 331.216ZM275.283 331.216C275.075 331.232 274.907 331.208 274.779 331.144C274.651 331.096 274.491 331.016 274.299 330.904C273.947 330.632 273.651 330.296 273.411 329.896C273.187 329.496 273.083 329.16 273.099 328.888C273.131 328.744 273.131 328.616 273.099 328.504C273.083 328.392 273.075 328.336 273.075 328.336C272.979 328.256 272.947 328.208 272.979 328.192C273.011 328.16 273.035 328.112 273.051 328.048C273.179 328.016 273.195 327.928 273.099 327.784C273.051 327.656 273.075 327.368 273.171 326.92C273.283 326.456 273.427 326.024 273.603 325.624C273.683 325.448 273.795 325.216 273.939 324.928C274.099 324.64 274.275 324.352 274.467 324.064C274.659 323.76 274.835 323.52 274.995 323.344C275.347 322.944 275.659 322.616 275.931 322.36C276.219 322.104 276.539 321.912 276.891 321.784C277.211 321.656 277.531 321.6 277.851 321.616C278.187 321.632 278.483 321.744 278.739 321.952C279.123 322.064 279.467 322.24 279.771 322.48C280.075 322.704 280.283 323.024 280.395 323.44C280.523 323.904 280.563 324.456 280.515 325.096C280.483 325.72 280.211 326.528 279.699 327.52C279.395 328.144 279.091 328.648 278.787 329.032C278.499 329.416 278.147 329.784 277.731 330.136C277.427 330.392 277.035 330.616 276.555 330.808C276.075 331 275.651 331.136 275.283 331.216ZM277.371 327.592C277.579 327.304 277.739 327.024 277.851 326.752C277.979 326.48 278.099 326.104 278.211 325.624C278.259 325.448 278.283 325.232 278.283 324.976C278.299 324.72 278.291 324.488 278.259 324.28C278.243 324.056 278.187 323.936 278.091 323.92C277.883 323.84 277.667 323.84 277.443 323.92C277.235 323.984 276.987 324.176 276.699 324.496C276.443 324.784 276.235 325.056 276.075 325.312C275.931 325.552 275.795 325.848 275.667 326.2C275.555 326.536 275.427 326.976 275.283 327.52C275.155 328.048 275.147 328.472 275.259 328.792C275.387 329.112 275.627 329.2 275.979 329.056C276.331 328.912 276.795 328.424 277.371 327.592ZM282.058 330.64C281.946 330.64 281.794 330.56 281.602 330.4C281.426 330.24 281.322 330.096 281.29 329.968C281.242 329.84 281.242 329.656 281.29 329.416C281.354 329.16 281.442 328.864 281.554 328.528C281.682 328 281.77 327.616 281.818 327.376C281.866 327.136 281.914 326.928 281.962 326.752C282.01 326.576 282.074 326.32 282.154 325.984C282.25 325.776 282.322 325.576 282.37 325.384C282.434 325.176 282.498 324.968 282.562 324.76C282.642 324.552 282.73 324.344 282.826 324.136C282.938 323.72 283.074 323.328 283.234 322.96C283.41 322.576 283.578 322.256 283.738 322C283.77 321.952 283.842 321.864 283.954 321.736C284.066 321.608 284.154 321.544 284.218 321.544C284.346 321.416 284.522 321.376 284.746 321.424C284.97 321.456 285.162 321.536 285.322 321.664C285.514 321.872 285.618 322.12 285.634 322.408C285.666 322.68 285.554 323.064 285.298 323.56C285.106 324.056 284.922 324.448 284.746 324.736C284.586 325.008 284.426 325.328 284.266 325.696C284.442 325.44 284.658 325.176 284.914 324.904C285.17 324.632 285.37 324.416 285.514 324.256C285.722 324.032 285.914 323.856 286.09 323.728C286.282 323.584 286.538 323.408 286.858 323.2C287.13 323.008 287.402 322.832 287.674 322.672C287.962 322.512 288.306 322.464 288.706 322.528C288.866 322.512 289.034 322.592 289.21 322.768C289.402 322.944 289.546 323.176 289.642 323.464C289.754 323.736 289.754 324.032 289.642 324.352C289.274 324.272 288.946 324.288 288.658 324.4C288.37 324.496 288.122 324.616 287.914 324.76C287.722 324.904 287.57 325.016 287.458 325.096C287.298 325.192 287.114 325.32 286.906 325.48C286.698 325.624 286.474 325.792 286.234 325.984C285.994 326.16 285.738 326.36 285.466 326.584C285.082 326.904 284.794 327.184 284.602 327.424C284.41 327.664 284.258 327.92 284.146 328.192C284.05 328.432 283.93 328.72 283.786 329.056C283.642 329.392 283.506 329.696 283.378 329.968C283.25 330.224 283.146 330.384 283.066 330.448C282.986 330.608 282.818 330.696 282.562 330.712C282.322 330.728 282.154 330.704 282.058 330.64ZM290.37 331.072C290.242 331.024 290.074 330.896 289.866 330.688C289.658 330.464 289.474 330.224 289.314 329.968C289.154 329.696 289.074 329.472 289.074 329.296C289.154 329.12 289.258 328.808 289.386 328.36C289.53 327.912 289.69 327.408 289.866 326.848C289.994 326.672 290.09 326.472 290.154 326.248C290.234 326.008 290.306 325.792 290.37 325.6C290.498 325.312 290.642 324.984 290.802 324.616C290.962 324.248 291.114 323.872 291.258 323.488C291.418 323.104 291.562 322.768 291.69 322.48C291.914 322 292.098 321.584 292.242 321.232C292.402 320.864 292.554 320.504 292.698 320.152C292.858 319.8 293.026 319.408 293.202 318.976C293.442 318.48 293.658 317.992 293.85 317.512C294.058 317.016 294.234 316.576 294.378 316.192C294.538 315.808 294.634 315.536 294.666 315.376C294.65 315.248 294.666 315.16 294.714 315.112C294.762 315.048 294.826 315.008 294.906 314.992C294.986 314.944 295.114 314.912 295.29 314.896C295.466 314.88 295.586 314.872 295.65 314.872C295.842 314.904 296.034 315.064 296.226 315.352C296.434 315.624 296.538 315.856 296.538 316.048C296.538 316.304 296.41 316.784 296.154 317.488C295.914 318.176 295.562 318.992 295.098 319.936C294.538 321.136 294.114 322.064 293.826 322.72C293.554 323.376 293.37 323.84 293.274 324.112C293.178 324.384 293.138 324.56 293.154 324.64C293.154 324.64 293.218 324.616 293.346 324.568C293.474 324.52 293.666 324.408 293.922 324.232C294.098 324.12 294.298 323.976 294.522 323.8C294.746 323.624 294.962 323.464 295.17 323.32C295.394 323.176 295.57 323.088 295.698 323.056C295.778 322.992 295.89 322.912 296.034 322.816C296.178 322.72 296.314 322.632 296.442 322.552C296.746 322.328 296.986 322.256 297.162 322.336C297.338 322.416 297.498 322.552 297.642 322.744C297.818 322.952 297.882 323.176 297.834 323.416C297.802 323.64 297.554 323.936 297.09 324.304C296.738 324.56 296.362 324.808 295.962 325.048C295.562 325.272 295.194 325.472 294.858 325.648C294.538 325.824 294.306 325.968 294.162 326.08C294.162 326.08 294.234 326.184 294.378 326.392C294.522 326.6 294.658 326.8 294.786 326.992C294.914 327.248 295.074 327.576 295.266 327.976C295.458 328.36 295.602 328.632 295.698 328.792C295.874 329.048 296.05 329.216 296.226 329.296C296.418 329.376 296.698 329.352 297.066 329.224C297.306 329.16 297.506 329.168 297.666 329.248C297.842 329.312 297.986 329.424 298.098 329.584C298.162 329.712 298.194 329.84 298.194 329.968C298.194 330.096 298.09 330.248 297.882 330.424C297.434 330.728 296.994 330.984 296.562 331.192C296.146 331.416 295.746 331.4 295.362 331.144C295.026 330.888 294.706 330.6 294.402 330.28C294.114 329.944 293.786 329.536 293.418 329.056C293.418 328.992 293.37 328.856 293.274 328.648C293.178 328.44 293.114 328.32 293.082 328.288C293.018 328.16 292.946 328.048 292.866 327.952C292.802 327.84 292.77 327.784 292.77 327.784C292.722 327.608 292.658 327.464 292.578 327.352C292.514 327.24 292.426 327.176 292.314 327.16C292.25 327.208 292.178 327.288 292.098 327.4C292.018 327.512 291.938 327.648 291.858 327.808C291.762 328.048 291.666 328.288 291.57 328.528C291.474 328.752 291.394 329 291.33 329.272C291.266 329.528 291.226 329.84 291.21 330.208C291.226 330.384 291.154 330.576 290.994 330.784C290.834 330.976 290.626 331.072 290.37 331.072ZM306.287 327.136C305.839 327.216 305.487 327.032 305.231 326.584C304.975 326.12 304.991 325.312 305.279 324.16C305.375 323.968 305.455 323.784 305.519 323.608C305.583 323.416 305.615 323.264 305.615 323.152C305.679 322.944 305.759 322.704 305.855 322.432C305.967 322.144 306.079 321.88 306.191 321.64C306.303 321.384 306.383 321.216 306.431 321.136C306.495 321.136 306.559 321.08 306.623 320.968C306.703 320.856 306.743 320.744 306.743 320.632C306.743 320.504 306.767 320.36 306.815 320.2C306.879 320.04 306.943 319.928 307.007 319.864C307.007 319.784 307.039 319.696 307.103 319.6C307.167 319.504 307.199 319.424 307.199 319.36C307.199 319.296 307.215 319.24 307.247 319.192C307.295 319.144 307.319 319.088 307.319 319.024C307.463 318.768 307.647 318.392 307.871 317.896C308.111 317.384 308.343 316.848 308.567 316.288C308.807 315.728 309.007 315.232 309.167 314.8C309.327 314.368 309.407 314.104 309.407 314.008C309.439 313.88 309.487 313.76 309.551 313.648C309.615 313.536 309.711 313.496 309.839 313.528C309.903 313.48 309.999 313.456 310.127 313.456C310.255 313.44 310.351 313.432 310.415 313.432C310.415 313.432 310.487 313.464 310.631 313.528C310.775 313.592 310.903 313.688 311.015 313.816C311.143 313.928 311.215 314.08 311.231 314.272C311.247 314.464 311.255 314.656 311.255 314.848C311.239 315.152 311.127 315.496 310.919 315.88C310.711 316.264 310.479 316.688 310.223 317.152C310.063 317.456 309.903 317.744 309.743 318.016C309.599 318.288 309.527 318.456 309.527 318.52C309.527 318.584 309.495 318.68 309.431 318.808C309.367 318.936 309.295 319.096 309.215 319.288C309.119 319.448 309.023 319.64 308.927 319.864C308.847 320.088 308.775 320.296 308.711 320.488C308.647 320.664 308.615 320.776 308.615 320.824C308.599 320.888 308.575 320.952 308.543 321.016C308.527 321.08 308.487 321.144 308.423 321.208C308.359 321.208 308.319 321.256 308.303 321.352C308.303 321.432 308.303 321.472 308.303 321.472C308.303 321.536 308.263 321.688 308.183 321.928C308.119 322.152 308.007 322.424 307.847 322.744C307.543 323.592 307.327 324.272 307.199 324.784C307.071 325.28 306.991 325.704 306.959 326.056C306.927 326.44 306.839 326.704 306.695 326.848C306.551 326.976 306.415 327.072 306.287 327.136ZM305.015 330.856C304.679 330.984 304.399 331.04 304.175 331.024C303.951 331.024 303.703 330.92 303.431 330.712C303.111 330.392 302.999 330.072 303.095 329.752C303.207 329.416 303.495 329.096 303.959 328.792C304.279 328.584 304.511 328.48 304.655 328.48C304.815 328.464 305.047 328.52 305.351 328.648C305.895 328.984 306.135 329.36 306.071 329.776C306.007 330.176 305.655 330.536 305.015 330.856Z" fill="#E6DCFA"/>
<g clip-path="url(#clip1_316_168)">
<path d="M204.033 351.206L240.841 351.176L277.481 351.145C284.417 351.145 291.354 351.125 298.298 351.135L299.252 349C282.855 349.803 266.458 350.779 250.067 351.918C233.683 353.057 217.306 354.379 200.936 355.853C191.749 356.687 182.569 357.561 173.389 358.496C172.955 358.537 172.194 358.944 172.033 359.635C171.873 360.327 172.354 360.591 172.741 360.601L221.673 362.36C237.983 362.95 254.293 363.539 270.604 364.119C279.811 364.455 289.024 364.78 298.231 365.105L299.192 362.97C293.41 363.275 287.629 363.58 281.84 363.885C281.313 363.916 280.518 364.129 280.231 364.902C279.958 365.624 280.465 366.02 280.892 366C286.674 365.705 292.449 365.41 298.231 365.115C298.765 365.085 299.566 364.871 299.867 364.089C300.167 363.306 299.62 362.99 299.192 362.98C282.882 362.38 266.571 361.801 250.261 361.221C233.95 360.642 217.64 360.052 201.33 359.472L173.703 358.476L173.055 360.581C189.319 358.923 205.596 357.419 221.873 356.097C238.143 354.775 254.42 353.626 270.704 352.64C279.897 352.081 289.091 351.583 298.284 351.135C298.818 351.105 299.62 350.891 299.92 350.108C300.22 349.325 299.68 349 299.252 349C286.981 349.031 274.71 349.031 262.445 349.041L225.805 349.071L204.988 349.092C204.467 349.092 203.66 349.356 203.373 350.108C203.085 350.861 203.613 351.206 204.033 351.206V351.206Z" fill="#B892FF"/>
</g>
<defs>
<clipPath id="clip0_316_168">
<rect width="121" height="90" fill="white" transform="translate(38 246)"/>
</clipPath>
<clipPath id="clip1_316_168">
<rect width="128" height="17" fill="white" transform="translate(172 349)"/>
</clipPath>
</defs>
</svg>
